<svg width="64" height="30" viewBox="0 0 64 30" fill="none" xmlns="http://www.w3.org/2000/svg">
<path d="M64 0H0V30H64V0Z" fill="#2E3192"/>
<path fill-rule="evenodd" clip-rule="evenodd" d="M60.216 18.0961H61.996V2.40906H60.166L60.216 18.0961ZM48.601 10.4141L47.659 11.9041L47.609 2.45906H49.643V8.84906L49.393 9.24506L48.601 10.4141ZM45.654 17.2001L44.861 18.4181H47.759L48.601 17.0501L49.394 15.8601L58.159 2.41006H55.583L49.643 11.6551V11.0091L49.393 11.3591L48.601 12.5501L45.654 17.2001ZM37.136 10.9091L32.658 17.6951L32.703 18.8141H34.216L37.136 14.3681L44.86 2.46006H42.683L37.136 10.9091ZM37.138 18.8141H35.652L37.138 16.5041L45.654 3.25406L46.152 2.45906H46.397V13.8191L45.654 14.9631L44.17 17.3001V9.61806L38.302 18.8141H37.138ZM26.937 4.30006H22.16L23.201 2.45906H41.621L40.285 4.24906H37.138L26.937 4.29906V4.30006ZM26.936 11.0591L21.81 18.9131H20.574V17.5451L26.936 7.50506L27.036 7.35906H20.872L20.722 6.75906L21.465 5.46806L26.935 5.41806H30.575L26.935 11.0581L26.936 11.0591ZM26.936 13.1501L23.25 18.9141H26.243L26.936 17.7461L33.053 7.40906H38.006L39.541 5.31906L37.137 5.36906L31.912 5.41906L26.936 13.1501ZM17.826 18.7131H20.054V2.46006H17.727L17.827 18.7151L17.826 18.7131ZM9.657 9.51806L3.64 18.7131H1.982V17.5451L9.657 5.76806L11.807 2.45906H14.235L13.248 3.99906L9.657 9.51906V9.51806ZM9.658 11.6091L8.965 12.6991H16.662V2.46006H15.521L13.293 6.06506L9.671 11.6101L9.658 11.6091ZM13.248 11.1091L12.257 11.1591L14.335 7.80406H14.733V11.1091H13.248ZM49.394 18.0461L59.05 3.00906L59 18.0961H56.97V9.71806L51.65 18.4181H49.145L49.394 18.0461ZM58.553 24.5451H59.793L58.553 21.8181L57.367 24.5451H58.553ZM0.841996 20.1101H4.432C4.962 20.0951 5.49 20.1121 6.017 20.1601C6.353 20.2001 6.676 20.3181 6.959 20.5051C7.221 20.6641 7.455 20.8651 7.652 21.1011C7.807 21.3561 7.891 21.6481 7.896 21.9461C7.906 22.2941 7.783 22.6321 7.552 22.8921C7.32901 23.2007 7.01062 23.4274 6.646 23.5371C7.114 23.6371 7.547 23.8591 7.901 24.1831C8.192 24.4931 8.354 24.9031 8.353 25.3281C8.3464 25.6654 8.24296 25.9938 8.055 26.2741C7.85983 26.5697 7.60714 26.8231 7.312 27.0191C6.92974 27.2219 6.50807 27.3396 6.076 27.3641C5.533 27.4181 4.986 27.4341 4.441 27.4141H0.850996V20.1101H0.839996H0.841996ZM4.432 21.3641H2.698V23.0551H4.432C4.678 23.0201 4.926 23.0031 5.175 23.0051C5.439 22.9841 5.694 22.8981 5.917 22.7551C5.99722 22.6783 6.06081 22.5859 6.10382 22.4835C6.14682 22.3812 6.16833 22.2711 6.167 22.1601C6.15857 21.9523 6.06877 21.7562 5.917 21.6141C5.73494 21.4641 5.50956 21.3764 5.274 21.3641H4.432ZM4.432 24.2741H2.698V26.2101H5.568C5.811 26.1841 6.038 26.0801 6.216 25.9141C6.304 25.8329 6.37194 25.7323 6.41445 25.6204C6.45697 25.5085 6.4729 25.3882 6.461 25.2691C6.46473 25.0751 6.41267 24.8842 6.311 24.7191C6.13968 24.5638 5.93765 24.4462 5.718 24.3741C5.29403 24.2957 4.86299 24.2621 4.432 24.2741ZM9.902 27.4781V20.1101H16.54V21.3641H11.713V23.0051H16.191V24.1831H11.713V26.1731H16.693V27.4141H9.902V27.4781ZM21.86 21.3641H20.08V23.1831H21.86C22.2427 23.1983 22.6258 23.1647 23 23.0831C23.1952 23.0452 23.3704 22.9388 23.494 22.7831C23.566 22.7127 23.6213 22.6272 23.6559 22.5327C23.6905 22.4383 23.7035 22.3372 23.694 22.2371C23.6947 22.1261 23.673 22.0162 23.63 21.9139C23.587 21.8117 23.5237 21.7192 23.444 21.6421C23.2465 21.482 23.0053 21.3855 22.752 21.3651L21.86 21.3641ZM21.86 24.8191C21.7002 24.6732 21.5161 24.5564 21.316 24.4741C21.017 24.4252 20.7136 24.4084 20.411 24.4241H20.067V27.4781H18.233V20.1101H22.073C22.7714 20.0768 23.471 20.1425 24.151 20.3051C24.544 20.4321 24.891 20.6761 25.142 21.0051C25.408 21.3251 25.548 21.7301 25.536 22.1461C25.5382 22.4062 25.4866 22.6641 25.3846 22.9034C25.2825 23.1428 25.1322 23.3585 24.943 23.5371C24.4453 23.9258 23.8397 24.1514 23.209 24.1831C23.557 24.3461 23.875 24.5651 24.151 24.8331C24.541 25.1891 24.891 25.5891 25.192 26.0231L26.279 27.4151H24.079L22.788 25.8241C22.5019 25.4596 22.1869 25.1189 21.846 24.8051L21.86 24.8191ZM26.79 25.0691L28.57 24.9691C28.644 25.3871 28.874 25.7601 29.213 26.0151C29.602 26.2501 30.049 26.3701 30.503 26.3601C30.951 26.3921 31.399 26.2891 31.789 26.0641C31.9227 25.9899 32.0348 25.8822 32.1143 25.7516C32.1937 25.621 32.2377 25.4719 32.242 25.3191C32.2457 25.2408 32.2293 25.163 32.1943 25.0929C32.1592 25.0229 32.1068 24.963 32.042 24.9191C31.8742 24.7326 31.6476 24.6091 31.4 24.5691L29.964 24.2741C29.2439 24.1613 28.5531 23.9078 27.931 23.5281C27.6907 23.3717 27.4927 23.1585 27.3545 22.9073C27.2164 22.6561 27.1423 22.3747 27.139 22.0881C27.1279 21.8954 27.1577 21.7026 27.2265 21.5223C27.2953 21.3421 27.4014 21.1784 27.538 21.0421C27.8024 20.6749 28.1864 20.4111 28.624 20.2961C29.1779 20.0875 29.7662 19.9857 30.358 19.9961C31.2544 19.9471 32.1444 20.1739 32.908 20.6461C33.1838 20.8091 33.4123 21.0412 33.571 21.3195C33.7297 21.5978 33.8131 21.9127 33.813 22.2331L32.029 22.2831C31.9702 21.9651 31.7938 21.6809 31.535 21.4871C31.1819 21.31 30.7896 21.2257 30.395 21.2421C29.9697 21.2279 29.5468 21.3117 29.159 21.4871C29.071 21.5385 28.9975 21.6113 28.945 21.6987C28.8926 21.7861 28.863 21.8852 28.859 21.9871C28.8654 22.075 28.8971 22.1592 28.9503 22.2295C29.0036 22.2998 29.0761 22.3531 29.159 22.3831C29.358 22.5831 29.951 22.7331 30.793 22.8831C31.4538 22.9944 32.1006 23.1771 32.722 23.4281C33.105 23.5881 33.444 23.8391 33.709 24.1601C33.9444 24.5064 34.0661 24.9174 34.0572 25.336C34.0482 25.7547 33.909 26.1602 33.659 26.4961C33.343 26.8661 32.926 27.1361 32.459 27.2741C31.8209 27.4902 31.1495 27.5918 30.476 27.5741C29.5632 27.6318 28.6551 27.4047 27.877 26.9241C27.5785 26.6985 27.3284 26.4153 27.1416 26.0911C26.9549 25.7669 26.8353 25.4084 26.79 25.0371V25.0691ZM39.142 21.8461L39.092 21.8011L37.906 24.5461H40.333L39.143 21.8191V21.8461H39.142ZM39.142 25.8011H37.358L36.616 27.4411H34.736L38.236 20.0831H40.116L43.706 27.4421H41.768L40.976 25.8011H39.142ZM44.616 27.4641V20.1101H47.333L48.968 25.1101L50.552 20.1101H53.269V27.4641H51.634V21.6741L49.85 27.4641H48.116L46.382 21.6741V27.4641H44.616ZM59.558 20.1101L63.139 27.4641H61.156L60.364 25.8241H56.846L56.103 27.4641H54.17L57.66 20.1101H59.558ZM8.368 13.8461L16.64 13.8181V18.6911H14.684V15.9821H9.631L7.974 18.7141H5.076L8.223 13.8681H8.368V13.8461Z" fill="#030303"/>
</svg>
