<svg width="86" height="86" viewBox="0 0 86 86" fill="none" xmlns="http://www.w3.org/2000/svg">
<path d="M86 0L0 86V38L38 0H86Z" fill="#00B359"/>
<path d="M81 5L86 0V5H81Z" fill="#007933"/>
<path d="M0 86L5 81V86H0Z" fill="#007933"/>
<path d="M8.42728 61.5763L2.39477 55.5438L4.50781 53.4308C5.23977 52.6988 5.93583 52.2845 6.59598 52.1878C7.25337 52.0884 7.85275 52.3094 8.39413 52.8508C8.68968 53.1463 8.87474 53.4833 8.94932 53.8617C9.02114 54.2373 8.97418 54.613 8.80845 54.9886C9.19515 54.7566 9.59428 54.6696 10.0058 54.7276C10.4202 54.7829 10.7972 54.9804 11.1369 55.3201C11.717 55.9001 11.9711 56.5244 11.8993 57.1928C11.8275 57.8613 11.4518 58.5408 10.7723 59.2313L8.42728 61.5763ZM7.04345 57.7066L8.67173 59.3349L9.73653 58.2701C10.0293 57.9773 10.1881 57.6803 10.213 57.3793C10.2379 57.0727 10.1274 56.7965 9.88154 56.5506C9.32911 55.9982 8.76288 56.0037 8.18283 56.5672L7.04345 57.7066ZM6.16509 56.8282L7.08488 55.9084C7.70083 55.2704 7.76436 54.7069 7.27547 54.218C7.00201 53.9446 6.7258 53.8285 6.44682 53.87C6.16785 53.9059 5.85711 54.0951 5.5146 54.4376L4.64453 55.3077L6.16509 56.8282ZM14.8617 49.9132L12.4752 52.2997L14.091 53.9156L16.8918 51.1147L17.8904 52.1133L13.8466 56.157L7.81408 50.1245L11.8496 46.089L12.8564 47.0958L10.0638 49.8884L11.5015 51.3261L13.888 48.9396L14.8617 49.9132ZM20.165 46.6732C19.9302 46.4385 19.6678 46.3418 19.3778 46.3832C19.085 46.4219 18.6541 46.5876 18.0851 46.8804C17.5133 47.1704 17.0341 47.3734 16.6474 47.4894C15.5923 47.8043 14.7512 47.6483 14.1242 47.0213C13.7982 46.6953 13.5994 46.3142 13.5276 45.8777C13.4557 45.4358 13.5193 44.9718 13.7181 44.4856C13.9198 43.9967 14.2347 43.5382 14.6628 43.1101C15.0937 42.6792 15.5563 42.374 16.0508 42.1944C16.5424 42.0121 17.023 41.9707 17.4926 42.0701C17.9649 42.1668 18.382 42.3961 18.7439 42.7579L17.5009 44.0009C17.2247 43.7247 16.9236 43.5976 16.5977 43.6197C16.269 43.639 15.9472 43.8061 15.6323 44.121C15.3285 44.4249 15.1572 44.7259 15.1186 45.0242C15.0771 45.3198 15.1614 45.5725 15.3713 45.7824C15.5674 45.9786 15.8298 46.0448 16.1585 45.9813C16.49 45.915 16.9057 45.7479 17.4056 45.48C18.3254 44.9856 19.1043 44.7342 19.7424 44.7259C20.3804 44.7176 20.9342 44.9483 21.4038 45.4178C21.9258 45.9399 22.1385 46.5476 22.0418 47.2409C21.9424 47.9314 21.5585 48.6109 20.89 49.2793C20.426 49.7433 19.9191 50.0817 19.3695 50.2944C18.8171 50.5043 18.2922 50.5623 17.7951 50.4684C17.3006 50.3717 16.8587 50.1287 16.4692 49.7392L17.7163 48.4921C18.382 49.1578 19.1126 49.0929 19.9081 48.2974C20.2036 48.0018 20.3749 47.7118 20.4219 47.4273C20.466 47.14 20.3804 46.8887 20.165 46.6732ZM23.3552 36.597L21.5074 38.4448L26.5331 43.4705L25.2901 44.7135L20.2644 39.6878L18.4414 41.5108L17.4346 40.504L22.3484 35.5902L23.3552 36.597ZM32.5034 34.3348C32.2687 34.1 32.0062 34.0033 31.7162 34.0447C31.4234 34.0834 30.9925 34.2491 30.4235 34.5419C29.8518 34.832 29.3726 35.035 28.9859 35.151C27.9307 35.4659 27.0896 35.3098 26.4626 34.6828C26.1367 34.3569 25.9378 33.9757 25.866 33.5393C25.7942 33.0973 25.8577 32.6333 26.0566 32.1472C26.2582 31.6583 26.5731 31.1997 27.0013 30.7716C27.4322 30.3407 27.8948 30.0355 28.3892 29.856C28.8809 29.6737 29.3615 29.6322 29.8311 29.7317C30.3034 29.8283 30.7205 30.0576 31.0823 30.4194L29.8394 31.6624C29.5631 31.3862 29.2621 31.2591 28.9361 31.2812C28.6074 31.3006 28.2857 31.4677 27.9708 31.7826C27.6669 32.0864 27.4957 32.3875 27.457 32.6858C27.4156 32.9813 27.4998 33.2341 27.7097 33.444C27.9059 33.6401 28.1683 33.7064 28.497 33.6429C28.8284 33.5766 29.2441 33.4095 29.7441 33.1415C30.6639 32.6471 31.4428 32.3958 32.0808 32.3875C32.7189 32.3792 33.2727 32.6098 33.7423 33.0794C34.2643 33.6014 34.477 34.2091 34.3803 34.9024C34.2809 35.5929 33.8969 36.2724 33.2285 36.9408C32.7645 37.4049 32.2576 37.7432 31.7079 37.9559C31.1555 38.1659 30.6307 38.2239 30.1335 38.1299C29.6391 38.0333 29.1972 37.7902 28.8077 37.4007L30.0548 36.1536C30.7205 36.8193 31.4511 36.7544 32.2466 35.9589C32.5421 35.6634 32.7134 35.3733 32.7603 35.0888C32.8045 34.8016 32.7189 34.5502 32.5034 34.3348ZM37.1935 27.5814L34.8071 29.9678L36.4229 31.5837L39.2237 28.7829L40.2222 29.7814L36.1785 33.8252L30.146 27.7927L34.1814 23.7572L35.1882 24.764L32.3957 27.5565L33.8334 28.9942L36.2199 26.6077L37.1935 27.5814ZM41.1959 26.8107L43.8351 24.1715L44.8336 25.17L40.9514 29.0522L34.9189 23.0197L36.1619 21.7767L41.1959 26.8107ZM45.7948 22.2118L48.4341 19.5725L49.4326 20.5711L45.5504 24.4532L39.5179 18.4207L40.7608 17.1778L45.7948 22.2118ZM51.1644 13.6105L48.7779 15.997L50.3938 17.6128L53.1946 14.812L54.1931 15.8105L50.1493 19.8543L44.1168 13.8218L48.1523 9.78629L49.1591 10.7931L46.3666 13.5856L47.8043 15.0233L50.1908 12.6368L51.1644 13.6105ZM54.9472 10.6398L53.9569 11.63L56.1653 13.8383L54.9223 15.0813L48.8898 9.0488L51.1313 6.80733C51.8439 6.0947 52.5524 5.70385 53.2567 5.6348C53.9611 5.56575 54.6033 5.82125 55.1833 6.40129C55.5949 6.81285 55.849 7.24651 55.9457 7.70226C56.0424 8.15249 55.9913 8.64001 55.7924 9.16481L59.5627 10.3249L59.6207 10.3829L58.2866 11.717L54.9472 10.6398ZM52.9501 10.6232L53.9528 9.62056C54.2649 9.30844 54.4279 8.98803 54.4417 8.65934C54.4527 8.32788 54.3188 8.02267 54.0398 7.74369C53.7553 7.45919 53.4501 7.31694 53.1242 7.31694C52.801 7.31418 52.4723 7.47991 52.1381 7.81413L51.1396 8.81264L52.9501 10.6232ZM59.629 6.6706L58.6346 7.66497L54.3133 3.62535L55.5894 2.34924L59.629 6.6706ZM59.7864 7.82241C59.9881 7.62078 60.209 7.51858 60.4493 7.51582C60.6924 7.51029 60.9065 7.60006 61.0915 7.78512C61.2738 7.96743 61.3622 8.18011 61.3567 8.42318C61.3539 8.66348 61.2517 8.88445 61.0501 9.08609C60.8512 9.28496 60.6303 9.38716 60.3872 9.39269C60.1469 9.39545 59.9356 9.30568 59.7533 9.12338C59.571 8.94108 59.4812 8.72977 59.484 8.48947C59.4867 8.24364 59.5876 8.02129 59.7864 7.82241Z" fill="white"/>
</svg>
