<svg width="74" height="23" viewBox="0 0 74 23" fill="none" xmlns="http://www.w3.org/2000/svg">
<path d="M27.8431 9.4L26 10.6L27.8431 12.2V19.4L28.7647 20.2L29.6863 21H71.1569L72.5392 20.6L73 19.3637V1.8L72.0784 1H28.7647L28.3039 1.4L27.8431 1.8V9.4Z" stroke="#DDDDDD"/>
<rect width="23" height="23" rx="2" fill="#FC4A35"/>
<path d="M17.9379 13.4986V11.4986H20V9.99917H17.9379V7.99917H16.3926V9.99917H14.3313V11.4986H16.3926V13.4986H17.9379ZM8.1527 7.94465C9.11734 7.94465 9.76697 8.34449 10.1365 8.68484L11.6026 7.30525C10.7103 6.49566 9.54645 6 8.1527 6C5.31071 5.99917 3 8.23957 3 10.9996C3 13.7596 5.31071 16 8.1527 16C11.1267 16 13.1011 13.9703 13.1011 11.1152C13.1011 10.6997 13.0466 10.4048 12.9708 10.0909H8.15015V11.9546H10.987C10.8525 12.7402 10.1263 14.0661 8.1527 14.0661C6.44734 14.0661 5.05614 12.6906 5.05614 11.0062C5.05614 9.31929 6.44734 7.94465 8.1527 7.94465Z" fill="white"/>
</svg>
