<svg width="45" height="45" viewBox="0 0 45 45" fill="none" xmlns="http://www.w3.org/2000/svg">
<path d="M32.0888 25.498V22.698H35V20.5988H32.0888V17.7988H29.9072V20.5988H26.9972V22.698H29.9072V25.498H32.0888ZM18.2744 17.7225C19.6363 17.7225 20.5534 18.2823 21.075 18.7588L23.1448 16.8273C21.8852 15.6939 20.242 15 18.2744 15C14.2622 14.9988 11 18.1354 11 21.9994C11 25.8634 14.2622 29 18.2744 29C22.4729 29 25.2603 26.1584 25.2603 22.1613C25.2603 21.5796 25.1834 21.1667 25.0764 20.7272H18.2708V23.3364H22.2758C22.0859 24.4363 21.0606 26.2925 18.2744 26.2925C15.8668 26.2925 13.9028 24.3669 13.9028 22.0087C13.9028 19.647 15.8668 17.7225 18.2744 17.7225Z" fill="#D9D9D9"/>
<circle cx="22.5" cy="22.5" r="21.5" stroke="#CFCFCF" stroke-width="2"/>
</svg>
