<svg width="45" height="45" viewBox="0 0 45 45" fill="none" xmlns="http://www.w3.org/2000/svg">
<path d="M30.1507 19.489C30.1626 19.6425 30.1626 19.7951 30.1626 19.9478C30.1626 24.6182 26.4503 30 19.666 30C17.5758 30 15.634 29.4202 14 28.4134C14.2968 28.4458 14.5825 28.4572 14.8912 28.4572C16.5518 28.4611 18.1654 27.9293 19.4718 26.9478C18.7019 26.9344 17.9555 26.6912 17.337 26.252C16.7184 25.8128 16.2585 25.1996 16.0215 24.4981C16.2495 24.5305 16.4785 24.5524 16.7185 24.5524C17.0492 24.5524 17.3816 24.5086 17.6903 24.4323C16.8548 24.2707 16.1034 23.837 15.5641 23.205C15.0247 22.5729 14.7306 21.7814 14.7318 20.9652V20.9213C15.2237 21.1836 15.7943 21.3476 16.3988 21.3695C15.8924 21.0472 15.4772 20.61 15.1901 20.0967C14.9031 19.5834 14.7532 19.01 14.7538 18.4278C14.7538 17.7717 14.9361 17.17 15.2558 16.6455C16.1828 17.7375 17.3391 18.6309 18.6496 19.2677C19.9602 19.9046 21.3958 20.2707 22.8635 20.3424C22.8067 20.0793 22.7719 19.8065 22.7719 19.5329C22.7717 19.0689 22.867 18.6094 23.0523 18.1806C23.2376 17.7519 23.5094 17.3624 23.852 17.0342C24.1946 16.7061 24.6014 16.4459 25.0492 16.2685C25.4969 16.091 25.9768 15.9998 26.4613 16C27.5238 16 28.4828 16.4263 29.1569 17.1156C29.9829 16.9627 30.775 16.674 31.4981 16.2622C31.2227 17.0787 30.646 17.7709 29.8759 18.2094C30.6085 18.1294 31.3244 17.9449 32 17.6621C31.4954 18.3665 30.8702 18.9841 30.1507 19.489Z" fill="#D9D9D9"/>
<circle cx="22.5" cy="22.5" r="21.5" stroke="#CFCFCF" stroke-width="2"/>
</svg>
