<svg width="74" height="23" viewBox="0 0 74 23" fill="none" xmlns="http://www.w3.org/2000/svg">
<path d="M27.8431 9.4L26 10.6L27.8431 12.2V19.4L28.7647 20.2L29.6863 21H71.1569L72.5392 20.6L73 19.3637V1.8L72.0784 1H28.7647L28.3039 1.4L27.8431 1.8V9.4Z" stroke="#DDDDDD"/>
<rect width="23" height="23" rx="2" fill="#00AEF1"/>
<path d="M17.5617 8.74139C17.5709 8.86198 17.5709 8.98189 17.5709 9.1018C17.5709 12.7715 14.6836 17 9.40688 17C7.78119 17 6.27091 16.5445 5 15.7534C5.23082 15.7788 5.45308 15.7878 5.69316 15.7878C6.98473 15.7908 8.23972 15.373 9.25585 14.6018C8.65703 14.5913 8.07653 14.4002 7.59543 14.0551C7.11432 13.7101 6.75661 13.2283 6.57226 12.677C6.74964 12.7025 6.92774 12.7198 7.11439 12.7198C7.37157 12.7198 7.63016 12.6853 7.87024 12.6254C7.22037 12.4984 6.636 12.1577 6.2165 11.661C5.797 11.1644 5.56827 10.5425 5.5692 9.9012V9.86675C5.95176 10.0728 6.39558 10.2017 6.86576 10.2189C6.47187 9.9657 6.14889 9.62212 5.92564 9.21881C5.70239 8.81551 5.58581 8.36502 5.5863 7.90753C5.5863 7.39206 5.72807 6.91931 5.97669 6.5072C6.69774 7.36519 7.59704 8.06711 8.61636 8.56749C9.63568 9.06787 10.7523 9.35555 11.8939 9.41192C11.8497 9.20517 11.8226 8.99085 11.8226 8.77584C11.8224 8.41126 11.8965 8.05022 12.0407 7.71336C12.1848 7.3765 12.3962 7.07042 12.6627 6.81262C12.9292 6.55482 13.2456 6.35036 13.5938 6.21093C13.942 6.07149 14.3153 5.99982 14.6921 6C15.5185 6 16.2644 6.33492 16.7887 6.87658C17.4311 6.75641 18.0472 6.52955 18.6096 6.20605C18.3955 6.84751 17.9469 7.39144 17.348 7.73594C17.9177 7.67307 18.4746 7.52813 19 7.30591C18.6076 7.85936 18.1213 8.34468 17.5617 8.74139V8.74139Z" fill="white"/>
</svg>
