<svg width="45" height="34" viewBox="0 0 45 34" fill="none" xmlns="http://www.w3.org/2000/svg">
<path fill-rule="evenodd" clip-rule="evenodd" d="M44.5243 24.0488C42.6808 29.7028 33.4905 34 22.4305 34C11.3706 34 2.1802 29.7028 0.336761 24.0488H44.5243Z" fill="#ED1C24"/>
<path fill-rule="evenodd" clip-rule="evenodd" d="M22.4305 -2.76566e-05C10.0523 -2.76566e-05 0.0159517 5.38263 -1.27855e-05 12.0258V12.0575C0.000162691 12.1311 0.00157031 12.2045 0.00419483 12.2778L44.8568 12.2778C44.8596 12.1992 44.8611 12.1205 44.8611 12.0416C44.8611 5.39121 34.8186 -2.76566e-05 22.4305 -2.76566e-05Z" fill="#0084CB"/>
<path d="M5.79838 23.2195C5.67312 23.2195 5.5781 23.1806 5.51332 23.1029C5.44853 23.0208 5.41614 22.9517 5.41614 22.8955C5.41614 22.8351 5.42262 22.7876 5.43557 22.753L8.7073 13.955C8.85414 13.5706 9.08954 13.3546 9.41347 13.3071C9.52577 13.2942 9.65966 13.2877 9.81515 13.2877H9.92528C10.219 13.2877 10.422 13.3244 10.5343 13.3978C10.7157 13.5101 10.856 13.6894 10.9554 13.9356L14.4733 22.7595C14.4863 22.794 14.4927 22.8437 14.4927 22.9085C14.4927 22.969 14.4668 23.0359 14.415 23.1093C14.3632 23.1828 14.2768 23.2195 14.1558 23.2195H13.2488C13.0502 23.2195 12.9119 23.1266 12.8342 22.9409L12.0308 20.8353H7.77437L7.02932 22.9409C6.96886 23.1266 6.83712 23.2195 6.63413 23.2195H5.79838ZM11.4866 19.4359L9.93824 15.2248C9.92528 15.1816 9.89937 15.16 9.8605 15.16C9.82162 15.16 9.79571 15.1816 9.78275 15.2248L8.2797 19.4359H11.4866Z" fill="white"/>
<path d="M16.4752 13.7023C16.4752 13.59 16.5098 13.4929 16.5789 13.4108C16.6523 13.3287 16.7387 13.2877 16.838 13.2877H17.745C17.8444 13.2877 17.9286 13.3287 17.9977 13.4108C18.0668 13.4929 18.1013 13.59 18.1013 13.7023V21.7747H21.6128C21.7251 21.7747 21.8093 21.8115 21.8654 21.8849C21.9259 21.954 21.9561 22.0404 21.9561 22.144V22.8567C21.9561 22.956 21.9259 23.0424 21.8654 23.1158C21.8093 23.1849 21.7251 23.2195 21.6128 23.2195H16.8315C16.7322 23.2195 16.648 23.1784 16.5789 23.0964C16.5098 23.0143 16.4752 22.9171 16.4752 22.8048V13.7023Z" fill="white"/>
<path d="M25.7073 14.7H23.3685C23.2562 14.7 23.159 14.6655 23.077 14.5964C22.9992 14.523 22.9603 14.4344 22.9603 14.3308V13.6505C22.9603 13.5512 22.9992 13.4669 23.077 13.3978C23.159 13.3244 23.2562 13.2877 23.3685 13.2877H29.7694C29.8817 13.2877 29.9659 13.3244 30.0221 13.3978C30.0825 13.4669 30.1128 13.5533 30.1128 13.657V14.3372C30.1128 14.4366 30.0825 14.523 30.0221 14.5964C29.9616 14.6655 29.8752 14.7 29.7629 14.7H27.3399V22.8048C27.3399 22.9171 27.3032 23.0143 27.2298 23.0964C27.1607 23.1784 27.0764 23.2195 26.9771 23.2195H26.0636C25.9643 23.2195 25.8801 23.1784 25.8109 23.0964C25.7418 23.0143 25.7073 22.9171 25.7073 22.8048V14.7Z" fill="white"/>
<path d="M31.713 20.7705C31.5273 20.3818 31.3848 19.9694 31.2854 19.5331C31.1904 19.0926 31.1429 18.5743 31.1429 17.9782C31.1429 17.3779 31.2573 16.7689 31.4863 16.1513C31.7195 15.5336 32.0477 15.0002 32.471 14.551C33.3651 13.6008 34.5226 13.1257 35.9436 13.1257C37.4553 13.1257 38.6408 13.6116 39.5003 14.5834C40.3167 15.5034 40.7248 16.7041 40.7248 18.1856C40.7248 19.6541 40.2756 20.8828 39.3773 21.8719C38.954 22.3384 38.4465 22.7077 37.8548 22.9798C37.2631 23.2476 36.6627 23.3814 36.0537 23.3814C35.449 23.3814 34.9329 23.3188 34.5053 23.1936C34.0777 23.064 33.6868 22.8847 33.3327 22.6558C32.9828 22.4226 32.6718 22.1462 32.3997 21.8266C32.1276 21.507 31.8987 21.1549 31.713 20.7705ZM32.8986 18.1402C32.8986 18.6369 32.9569 19.1077 33.0735 19.5526C33.1945 19.9974 33.378 20.3948 33.6242 20.7446C34.1684 21.5091 34.9351 21.8914 35.9241 21.8914C36.9175 21.8914 37.6842 21.5264 38.2241 20.7965C38.7208 20.1227 38.9691 19.2502 38.9691 18.1791C38.9691 17.1684 38.7164 16.3348 38.2111 15.6783C37.6539 14.9657 36.8938 14.6093 35.9306 14.6093C35.002 14.6093 34.2634 14.9419 33.7149 15.6071C33.1707 16.2592 32.8986 17.1036 32.8986 18.1402Z" fill="white"/>
</svg>
