<svg width="63" height="26" viewBox="0 0 63 26" fill="none" xmlns="http://www.w3.org/2000/svg">
<path fill-rule="evenodd" clip-rule="evenodd" d="M59.376 15.687H61.156V0H59.326L59.376 15.687ZM47.761 8.005L46.819 9.495L46.769 0.0500002H48.803V6.44L48.553 6.836L47.761 8.005ZM44.814 14.791L44.021 16.009H46.919L47.761 14.641L48.554 13.451L57.319 0.00100017H54.743L48.803 9.246V8.6L48.553 8.95L47.761 10.141L44.814 14.791ZM36.296 8.5L31.818 15.286L31.863 16.405H33.376L36.296 11.959L44.02 0.0510001H41.843L36.296 8.5ZM36.298 16.405H34.812L36.298 14.095L44.814 0.845L45.312 0.0500002H45.557V11.41L44.814 12.554L43.33 14.891V7.209L37.462 16.405H36.298ZM26.097 1.891H21.32L22.361 0.0500002H40.781L39.445 1.84H36.298L26.097 1.89V1.891ZM26.096 8.65L20.97 16.504H19.734V15.136L26.096 5.096L26.196 4.95H20.032L19.882 4.35L20.625 3.059L26.095 3.009H29.735L26.095 8.649L26.096 8.65ZM26.096 10.741L22.41 16.505H25.403L26.096 15.337L32.213 5H37.166L38.701 2.91L36.297 2.96L31.072 3.01L26.096 10.741ZM16.986 16.304H19.214V0.0510001H16.887L16.987 16.306L16.986 16.304ZM8.817 7.109L2.8 16.304H1.142V15.136L8.817 3.359L10.967 0.0500002H13.395L12.408 1.59L8.817 7.11V7.109ZM8.818 9.2L8.125 10.29H15.822V0.0510001H14.681L12.453 3.656L8.831 9.201L8.818 9.2ZM12.408 8.7L11.417 8.75L13.495 5.395H13.893V8.7H12.408ZM48.554 15.637L58.21 0.6L58.16 15.687H56.13V7.309L50.81 16.009H48.305L48.554 15.637ZM57.713 22.136H58.953L57.713 19.409L56.527 22.136H57.713ZM0.00200003 17.701H3.592C4.122 17.686 4.65 17.703 5.177 17.751C5.513 17.791 5.836 17.909 6.119 18.096C6.381 18.255 6.615 18.456 6.812 18.692C6.967 18.947 7.051 19.239 7.056 19.537C7.066 19.885 6.943 20.223 6.712 20.483C6.48901 20.7916 6.17063 21.0183 5.806 21.128C6.274 21.228 6.707 21.45 7.061 21.774C7.352 22.084 7.514 22.494 7.513 22.919C7.50641 23.2564 7.40297 23.5848 7.215 23.865C7.01983 24.1607 6.76715 24.414 6.472 24.61C6.08974 24.8129 5.66808 24.9306 5.236 24.955C4.693 25.009 4.146 25.025 3.601 25.005H0.011V17.701H0H0.00200003ZM3.592 18.955H1.858V20.646H3.592C3.838 20.611 4.086 20.594 4.335 20.596C4.599 20.575 4.854 20.489 5.077 20.346C5.15722 20.2692 5.22081 20.1768 5.26382 20.0745C5.30683 19.9721 5.32833 19.862 5.327 19.751C5.31857 19.5432 5.22878 19.3471 5.077 19.205C4.89495 19.055 4.66957 18.9674 4.434 18.955H3.592ZM3.592 21.865H1.858V23.801H4.728C4.971 23.775 5.198 23.671 5.376 23.505C5.464 23.4238 5.53194 23.3233 5.57446 23.2114C5.61697 23.0994 5.63291 22.9791 5.621 22.86C5.62474 22.6661 5.57267 22.4752 5.471 22.31C5.29969 22.1547 5.09766 22.0372 4.878 21.965C4.45403 21.8866 4.02299 21.8531 3.592 21.865ZM9.062 25.069V17.701H15.7V18.955H10.873V20.596H15.351V21.774H10.873V23.764H15.853V25.005H9.062V25.069ZM21.02 18.955H19.24V20.774H21.02C21.4027 20.7892 21.7858 20.7556 22.16 20.674C22.3552 20.6362 22.5304 20.5298 22.654 20.374C22.726 20.3037 22.7813 20.2182 22.8159 20.1237C22.8505 20.0292 22.8635 19.9282 22.854 19.828C22.8547 19.7171 22.833 19.6071 22.79 19.5049C22.747 19.4026 22.6838 19.3101 22.604 19.233C22.4065 19.073 22.1653 18.9764 21.912 18.956L21.02 18.955ZM21.02 22.41C20.8602 22.2641 20.6761 22.1473 20.476 22.065C20.177 22.0161 19.8736 21.9994 19.571 22.015H19.227V25.069H17.393V17.701H21.233C21.9314 17.6677 22.631 17.7334 23.311 17.896C23.704 18.023 24.051 18.267 24.302 18.596C24.568 18.916 24.708 19.321 24.696 19.737C24.6982 19.9972 24.6466 20.255 24.5446 20.4944C24.4426 20.7337 24.2922 20.9494 24.103 21.128C23.6053 21.5167 22.9997 21.7423 22.369 21.774C22.717 21.937 23.035 22.156 23.311 22.424C23.701 22.78 24.051 23.18 24.352 23.614L25.439 25.006H23.239L21.948 23.415C21.6619 23.0506 21.3469 22.7098 21.006 22.396L21.02 22.41ZM25.95 22.66L27.73 22.56C27.804 22.978 28.034 23.351 28.373 23.606C28.762 23.841 29.209 23.961 29.663 23.951C30.111 23.983 30.559 23.88 30.949 23.655C31.0827 23.5809 31.1948 23.4732 31.2743 23.3425C31.3537 23.2119 31.3977 23.0628 31.402 22.91C31.4057 22.8318 31.3893 22.7539 31.3543 22.6839C31.3192 22.6138 31.2668 22.554 31.202 22.51C31.0342 22.3235 30.8076 22.2 30.56 22.16L29.124 21.865C28.4039 21.7522 27.7131 21.4987 27.091 21.119C26.8507 20.9627 26.6527 20.7495 26.5145 20.4983C26.3764 20.2471 26.3023 19.9657 26.299 19.679C26.2879 19.4864 26.3177 19.2936 26.3865 19.1133C26.4553 18.933 26.5614 18.7693 26.698 18.633C26.9624 18.2658 27.3464 18.0021 27.784 17.887C28.3379 17.6784 28.9262 17.5766 29.518 17.587C30.4144 17.538 31.3044 17.7649 32.068 18.237C32.3438 18.4001 32.5723 18.6322 32.731 18.9105C32.8897 19.1888 32.9731 19.5036 32.973 19.824L31.189 19.874C31.1302 19.556 30.9538 19.2719 30.695 19.078C30.3419 18.9009 29.9496 18.8166 29.555 18.833C29.1297 18.8188 28.7068 18.9026 28.319 19.078C28.231 19.1295 28.1575 19.2022 28.105 19.2896C28.0526 19.377 28.023 19.4762 28.019 19.578C28.0254 19.6659 28.0571 19.7502 28.1103 19.8204C28.1636 19.8907 28.2361 19.9441 28.319 19.974C28.518 20.174 29.111 20.324 29.953 20.474C30.6138 20.5853 31.2606 20.7681 31.882 21.019C32.265 21.179 32.604 21.43 32.869 21.751C33.1044 22.0973 33.2261 22.5083 33.2172 22.927C33.2082 23.3456 33.069 23.7511 32.819 24.087C32.503 24.457 32.086 24.727 31.619 24.865C30.9809 25.0812 30.3095 25.1827 29.636 25.165C28.7233 25.2228 27.8151 24.9956 27.037 24.515C26.7385 24.2895 26.4884 24.0062 26.3016 23.682C26.1149 23.3578 25.9953 22.9994 25.95 22.628V22.66ZM38.302 19.437L38.252 19.392L37.066 22.137H39.493L38.303 19.41V19.437H38.302ZM38.302 23.392H36.518L35.776 25.032H33.896L37.396 17.674H39.276L42.866 25.033H40.928L40.136 23.392H38.302ZM43.776 25.055V17.701H46.493L48.128 22.701L49.712 17.701H52.429V25.055H50.794V19.265L49.01 25.055H47.276L45.542 19.265V25.055H43.776ZM58.718 17.701L62.299 25.055H60.316L59.524 23.415H56.006L55.263 25.055H53.33L56.82 17.701H58.718ZM7.528 11.437L15.8 11.409V16.282H13.844V13.573H8.791L7.134 16.305H4.236L7.383 11.459H7.528V11.437Z" fill="white"/>
</svg>
