<svg width="91" height="30" fill="none" xmlns="http://www.w3.org/2000/svg"><path d="M54.428 9.945a5.2 5.2 0 0 0 0-1.796c-.33-1.859-1.752-3.368-4.432-3.413l-3.68-.073-6.38-.118-2.979 5.805 1.358-.105-3.594 15.909H44.98a6.67 6.67 0 0 0 1.358-.136c4.835-.964 9.58-6.819 4.817-11.482a6.41 6.41 0 0 0 2.166-1.915 6.443 6.443 0 0 0 1.107-2.676zm-8.113 10.818c-.238.18-.526.28-.824.286h-3.699l1.218-4.781h2.771c.176-.003.352.012.525.045 2.21.423 1.43 3.5.01 4.45zm.906-7.727h-3.486l1.032-4.255h3.07c1.634.018 1.425 4.273-.612 4.273l-.004-.018zM91 26.364L89.144 4.846h-9.852l-2.874 5.4h1.032l-5.044 10.972-2.263 4.919h6.79l1.44-3.955h5.356v4.182H91zm-9.145-8.437h-1.856l1.856-3.74 1.856-3.746v7.486h-1.856zm-21.187-2.082c.371-3.395 6.958-6.322 11.423-3.109l.298-.722 2.264-5.405-2.264-1.268-2.35-1.327-.402 1.236c-2.74.214-9.96-2.273-14.402 8.845-.4 1.023-.67 2.092-.806 3.182-.09.793-.09 1.594 0 2.387.521 4.209 4.025 7.813 13.053 6.818l2.35-6.364c-6.841 2.155-9.522-.727-9.164-4.272zM26.513 2.727h-.067A29.682 29.682 0 0 0 14.537 0C10.47.047 6.457.962 2.768 2.686l-.05.041v.041C2.668 2.814 0 7.7 0 14.95a28.171 28.171 0 0 0 2.69 12.273l.027.05.054.027A29.71 29.71 0 0 0 14.683 30a28.549 28.549 0 0 0 11.771-2.686h.032l.023-.023c.122-.132 3.051-3.287 3.051-12.81-.009-7.767-2.92-11.581-3.047-11.754zm-.28 24.232a28.148 28.148 0 0 1-11.55 2.627 29.381 29.381 0 0 1-11.671-2.6A27.972 27.972 0 0 1 .4 14.95c-.046-4.127.85-8.21 2.616-11.936A28.197 28.197 0 0 1 14.538.4c4.035.061 8.013.954 11.69 2.623a12.83 12.83 0 0 1 1.44 2.8 23.909 23.909 0 0 1 1.485 8.636c0 8.927-2.658 12.214-2.92 12.514v-.014z" fill="#039"/><path d="M14.78 2.7s-4.786-.086-4.786 4.373c0 4.46 4.41 4.15 4.41 9.546v6.109h.747v-6.091c0-5.414 4.41-5.105 4.41-9.546 0-4.44-4.781-4.39-4.781-4.39z" fill="#039"/><path d="M8.083 17.363c2.382.628 5.433 2.046 5.433 5.36h.353v-5.419c0-2.427-2.182-7.19-5.306-7.19s-3.934 2.781-3.934 3.95c.023 1.577 1.005 2.65 3.454 3.3z" fill="#039"/><path d="M9.454 21.15c2.06-.454 3.02.623 3.2 1.573h.322c.177-1.89-1.589-4.204-4.713-4.709-3.123-.504-3.282-1.559-3.282-1.559-1.526 2.8-.258 5.746 4.473 4.696zm11.856-3.787c2.45-.65 3.432-1.722 3.432-3.3 0-1.168-.81-3.95-3.934-3.95s-5.306 4.764-5.306 7.191v5.423h.344c0-3.318 3.083-4.736 5.465-5.364z" fill="#039"/><path d="M21.134 18.014c-3.124.505-4.894 2.818-4.718 4.71h.335c.177-.95 1.137-2.033 3.197-1.573 4.722 1.05 5.99-1.896 4.5-4.696 0 0-.19 1.055-3.314 1.56zM7.866 25.99l.43.155-.154.432a.402.402 0 0 1-.176.027.869.869 0 0 1-.263-.054.452.452 0 0 1-.285-.287.675.675 0 0 1 0-.454l.167-.455a.682.682 0 0 1 .272-.368.452.452 0 0 1 .39-.036c.11.032.203.105.262.204a.392.392 0 0 1 0 .314l.421.155A.698.698 0 0 0 8.935 25a.965.965 0 0 0-.557-.418.901.901 0 0 0-1.035.259.951.951 0 0 0-.183.336l-.168.455a.948.948 0 0 0 0 .754.967.967 0 0 0 .57.491c.181.075.377.106.571.091a.857.857 0 0 0 .394-.123l.308-.863-.874-.319-.095.328zm2.314-.903l-.807-.15-.43 2.336.453.086.172-.936.371.068a.38.38 0 0 1 .254.15.392.392 0 0 1 .045.286l-.031.169a1.261 1.261 0 0 0-.023.231.256.256 0 0 0 .05.187l.48.09v-.036a.282.282 0 0 1-.064-.172.77.77 0 0 1 0-.21l.032-.172a.722.722 0 0 0-.027-.373.526.526 0 0 0-.258-.259.674.674 0 0 0 .316-.16.528.528 0 0 0 .15-.29.629.629 0 0 0-.131-.55.972.972 0 0 0-.553-.296zm.235.781a.324.324 0 0 1-.14.232.451.451 0 0 1-.308.027l-.331-.059.127-.681.335.063a.39.39 0 0 1 .267.146.333.333 0 0 1 .05.272zm2.108 1.074a.483.483 0 0 1-.159.35.452.452 0 0 1-.357.095.451.451 0 0 1-.331-.15.503.503 0 0 1-.095-.377l.127-1.55-.476-.037-.126 1.546a.77.77 0 0 0 .212.65c.18.175.416.277.666.286.244.029.49-.032.693-.172a.775.775 0 0 0 .316-.605l.136-1.55-.452-.04-.154 1.554zm1.736-1.487h-.905v2.377h.452v-.86h.43a.941.941 0 0 0 .643-.204.698.698 0 0 0 .24-.545.722.722 0 0 0-.23-.555.935.935 0 0 0-.63-.213zm.29 1.04a.388.388 0 0 1-.3.11h-.452v-.782h.43a.384.384 0 0 1 .3.113.397.397 0 0 1 .099.287.378.378 0 0 1-.077.254v.019zm3.921.027a.51.51 0 0 0-.358-.159.503.503 0 0 0 .28-.518.57.57 0 0 0-.285-.454 1.105 1.105 0 0 0-.665-.091l-.77.077.253 2.35.906-.096a1.02 1.02 0 0 0 .611-.245.604.604 0 0 0 .172-.536.588.588 0 0 0-.145-.328zm-1.264-.831l.299-.032a.496.496 0 0 1 .312.045.285.285 0 0 1 .132.232.27.27 0 0 1-.082.236.451.451 0 0 1-.28.11l-.317.031-.064-.622zm.906 1.477a.452.452 0 0 1-.281.114l-.453.045-.072-.682.452-.045a.407.407 0 0 1 .3.059.354.354 0 0 1 .126.254.315.315 0 0 1-.109.255h.037zm2.525-.805l-.453.087a.48.48 0 0 1-.036.359.454.454 0 0 1-.666.073.737.737 0 0 1-.213-.419l-.09-.454a.734.734 0 0 1 .031-.455.377.377 0 0 1 .29-.236.392.392 0 0 1 .53.36l.453-.092a.73.73 0 0 0-.349-.536.988.988 0 0 0-.702-.077.865.865 0 0 0-.606.404 1.013 1.013 0 0 0-.114.746l.096.454a.97.97 0 0 0 .393.646.905.905 0 0 0 .73.136.932.932 0 0 0 .597-.341.73.73 0 0 0 .113-.627l-.004-.027zM21 24.6l.027 2.508.453-.163v-.537l.706-.254.317.454.453-.163-1.494-2.01L21 24.6zm.453 1.413l-.027-.878.52.705-.493.173z" fill="#039"/></svg>