<svg width="73" height="25" viewBox="0 0 73 25" fill="none" xmlns="http://www.w3.org/2000/svg">
<path d="M22.8333 0.875H2.16667C1.8241 0.875 1.49555 1.01109 1.25332 1.25332C1.01109 1.49555 0.875 1.8241 0.875 2.16667V22.8333C0.875 23.1759 1.01109 23.5044 1.25332 23.7467C1.49555 23.9889 1.8241 24.125 2.16667 24.125H13.2944V15.135H10.2745V11.6152H13.2944V9.03187C13.2944 6.02875 15.1285 4.39221 17.8152 4.39221C18.7181 4.38963 19.6222 4.43612 20.5212 4.53042V7.65625H18.6677C17.2107 7.65625 16.9265 8.35117 16.9265 9.36771V11.6088H20.4102L19.9581 15.1285H16.9252V24.125H22.8333C23.1759 24.125 23.5044 23.9889 23.7467 23.7467C23.9889 23.5044 24.125 23.1759 24.125 22.8333V2.16667C24.125 1.8241 23.9889 1.49555 23.7467 1.25332C23.5044 1.01109 23.1759 0.875 22.8333 0.875Z" fill="#23599B"/>
<path d="M26.8431 10.4L25 11.6L26.8431 13.2V20.4L27.7647 21.2L28.6863 22H70.1569L71.5392 21.6L72 20.3637V2.8L71.0784 2H27.7647L27.3039 2.4L26.8431 2.8V10.4Z" stroke="#DDDDDD"/>
</svg>
