<svg width="507" height="348" viewBox="0 0 507 348" fill="none" xmlns="http://www.w3.org/2000/svg">
<g clip-path="url(#clip0)">
<path d="M459 347.065C459 347.065 559.974 184.771 451.383 75.196C390.359 13.618 273.938 39.801 235.645 78.581C197.352 117.361 70.568 56.453 32.069 131.263C-17.667 227.909 53.689 347.196 53.689 347.196L459 347.065Z" fill="#F7FCFF"/>
<path d="M23.27 345.196C16.8806 323.061 13.6487 300.135 13.67 277.096C13.666 141.996 123.189 32.4751 258.289 32.4751C393.389 32.4751 502.912 141.996 502.912 277.096C502.932 300.034 499.727 322.86 493.392 344.905" stroke="#DBF0FF" stroke-width="2" stroke-miterlimit="10"/>
<path d="M69.274 344.773C61.5079 323.056 57.5498 300.161 57.574 277.097C57.578 166.248 147.439 76.386 258.289 76.386C369.139 76.386 459 166.248 459 277.096C459.026 300.311 455.017 323.354 447.152 345.196" stroke="#DBF0FF" stroke-width="2" stroke-miterlimit="10"/>
<path d="M104.08 113.2H419.48C423.724 113.2 427.793 114.886 430.794 117.886C433.794 120.887 435.48 124.956 435.48 129.2V344.51H88.08V129.2C88.08 124.956 89.7657 120.887 92.7663 117.886C95.7669 114.886 99.8366 113.2 104.08 113.2Z" fill="white" stroke="#80C9FF" stroke-width="4" stroke-miterlimit="10"/>
<path d="M418.653 147.859H103.916V344.804H418.653V147.859Z" fill="white" stroke="#80C9FF" stroke-width="4" stroke-miterlimit="10"/>
<path d="M418.653 168.506H103.916V344.804H418.653V168.506Z" fill="white" stroke="#80C9FF" stroke-width="4" stroke-miterlimit="10"/>
<path d="M136.595 170.215H105.649V343.09H136.595V170.215Z" fill="#DEF1FF"/>
<path d="M202.724 177.864H152.477V186.429H202.724V177.864Z" fill="#80C9FF"/>
<path d="M196.894 292.654H152.477V300.225H196.894V292.654Z" fill="#80C9FF"/>
<path d="M213.379 292.654H199.702V300.225H213.379V292.654Z" fill="#80C9FF"/>
<path d="M292.929 292.654H266.583V300.225H292.929V292.654Z" fill="#DEF1FF"/>
<path d="M262.754 292.654H217.208V300.225H262.754V292.654Z" fill="#80C9FF"/>
<path d="M187.676 304.054H152.477V311.625H187.676V304.054Z" fill="#80C9FF"/>
<path d="M165.145 315.454H152.477V323.025H165.145V315.454Z" fill="#DEF1FF"/>
<path d="M204.68 315.454H168.974V323.025H204.68V315.454Z" fill="#DEF1FF"/>
<path d="M227.527 304.054H191.433V311.625H227.527V304.054Z" fill="#80C9FF"/>
<path d="M235.645 190.54H152.477V199.165H235.645V190.54Z" fill="#80C9FF"/>
<path d="M286.469 190.54H241.655V199.165H286.469V190.54Z" fill="#80C9FF"/>
<path d="M235.645 216.774H152.477V225.399H235.645V216.774Z" fill="#80C9FF"/>
<path d="M183.954 229.73H152.477V238.355H183.954V229.73Z" fill="#80C9FF"/>
<path d="M202.724 229.73H188.342V238.355H202.724V229.73Z" fill="#DEF1FF"/>
<path d="M215.972 255.53H152.477V264.155H215.972V255.53Z" fill="#80C9FF"/>
<path d="M202.724 242.574H152.477V251.199H202.724V242.574Z" fill="#DEF1FF"/>
<path d="M235.645 242.574H205.901V251.199H235.645V242.574Z" fill="#DEF1FF"/>
<path d="M269.143 242.574H239.399V251.199H269.143V242.574Z" fill="#DEF1FF"/>
<path d="M217.276 268.486H152.477V277.111H217.276V268.486Z" fill="#DEF1FF"/>
<path d="M259.731 268.486H221.373V277.111H259.731V268.486Z" fill="#DEF1FF"/>
<path d="M492 345.196H505" stroke="#80C9FF" stroke-width="4" stroke-linecap="round" stroke-linejoin="round"/>
<path d="M18 345.196H476" stroke="#80C9FF" stroke-width="4" stroke-linecap="round" stroke-linejoin="round"/>
<path d="M2 345.196H11" stroke="#80C9FF" stroke-width="4" stroke-linecap="round" stroke-linejoin="round"/>
<path d="M198.195 83.4121L196.335 75.1951H137.339V83.4121V127.309V135.526H222.462V83.4121H198.195Z" fill="#DEF1FF"/>
<path d="M203.46 78.3559L201.599 70.1379H142.603V78.3559V122.252V130.47H227.726V78.3559H203.46Z" fill="white"/>
<path d="M228.569 131.312H141.76V69.2959H202.272L204.133 77.5129H228.569V131.312ZM143.445 129.626H226.883V79.1959H202.789L200.929 70.9779H143.445V129.626Z" fill="#288EEA"/>
<path d="M227.726 93.3149H142.603C142.379 93.3149 142.165 93.2261 142.007 93.068C141.849 92.9099 141.76 92.6955 141.76 92.4719C141.76 92.2483 141.849 92.0339 142.007 91.8758C142.165 91.7177 142.379 91.6289 142.603 91.6289H227.726C227.95 91.6289 228.164 91.7177 228.322 91.8758C228.48 92.0339 228.569 92.2483 228.569 92.4719C228.569 92.6955 228.48 92.9099 228.322 93.068C228.164 93.2261 227.95 93.3149 227.726 93.3149Z" fill="#288EEA"/>
<path d="M185.165 89.312H163.814V95.774H185.165V89.312Z" fill="white"/>
<path d="M186.007 96.617H162.972V88.469H186.007V96.617ZM164.657 94.931H184.321V90.155H164.657V94.931Z" fill="#288EEA"/>
<path d="M274.136 39.802C278.183 39.802 281.464 36.5211 281.464 32.474C281.464 28.4269 278.183 25.146 274.136 25.146C270.089 25.146 266.808 28.4269 266.808 32.474C266.808 36.5211 270.089 39.802 274.136 39.802Z" fill="#D4E8FB" stroke="#298EEA" stroke-width="4" stroke-miterlimit="10" stroke-linecap="round"/>
<path d="M101.501 32.475C104.048 32.475 106.113 30.4101 106.113 27.863C106.113 25.3158 104.048 23.251 101.501 23.251C98.9539 23.251 96.889 25.3158 96.889 27.863C96.889 30.4101 98.9539 32.475 101.501 32.475Z" fill="#DEF1FF"/>
<path d="M44.89 116.094C46.4889 116.094 47.785 114.798 47.785 113.199C47.785 111.6 46.4889 110.304 44.89 110.304C43.2911 110.304 41.995 111.6 41.995 113.199C41.995 114.798 43.2911 116.094 44.89 116.094Z" fill="#298EEA"/>
<path d="M302.295 19.091C303.894 19.091 305.19 17.7949 305.19 16.196C305.19 14.5972 303.894 13.301 302.295 13.301C300.696 13.301 299.4 14.5972 299.4 16.196C299.4 17.7949 300.696 19.091 302.295 19.091Z" fill="#DEF1FF"/>
<path d="M459.002 127.052C456.512 127.052 454.078 127.79 452.007 129.173C449.937 130.556 448.323 132.522 447.37 134.822C446.417 137.122 446.167 139.654 446.653 142.096C447.138 144.538 448.337 146.781 450.098 148.542C451.858 150.303 454.101 151.502 456.543 151.988C458.985 152.474 461.517 152.225 463.817 151.272C466.118 150.319 468.084 148.706 469.467 146.635C470.851 144.565 471.589 142.131 471.589 139.641C471.586 136.303 470.259 133.103 467.899 130.743C465.539 128.383 462.34 127.055 459.002 127.052ZM459.002 147.261C457.495 147.261 456.022 146.814 454.768 145.977C453.515 145.14 452.538 143.95 451.961 142.558C451.384 141.165 451.233 139.633 451.527 138.155C451.821 136.677 452.547 135.319 453.612 134.253C454.678 133.187 456.036 132.462 457.514 132.167C458.992 131.873 460.524 132.024 461.917 132.601C463.309 133.178 464.499 134.154 465.337 135.407C466.174 136.661 466.621 138.134 466.621 139.641C466.619 141.661 465.815 143.598 464.387 145.026C462.959 146.455 461.022 147.258 459.002 147.261Z" fill="#DDDDDD"/>
<path d="M466.579 140.445C466.423 141.909 465.847 143.297 464.919 144.44C463.991 145.584 462.752 146.434 461.351 146.887C459.95 147.341 458.448 147.379 457.026 146.997C455.604 146.614 454.323 145.828 453.339 144.733C452.354 143.638 451.708 142.281 451.479 140.827C451.249 139.372 451.446 137.883 452.046 136.538C452.645 135.193 453.622 134.051 454.857 133.249C456.093 132.448 457.534 132.021 459.006 132.022V127.046C456.547 127.041 454.14 127.756 452.083 129.102C450.025 130.449 448.406 132.368 447.426 134.623C446.446 136.878 446.147 139.371 446.566 141.794C446.985 144.217 448.104 146.464 449.785 148.259C451.466 150.054 453.635 151.317 456.026 151.894C458.416 152.471 460.923 152.336 463.238 151.505C465.552 150.675 467.573 149.185 469.051 147.22C470.529 145.255 471.4 142.9 471.556 140.446L466.579 140.445Z" fill="#288EEA"/>
<path fill-rule="evenodd" clip-rule="evenodd" d="M481.345 30.5649C481.345 30.802 481.251 31.0294 481.083 31.1971C480.916 31.3647 480.688 31.4589 480.451 31.4589C480.334 31.459 480.217 31.436 480.109 31.3911C480 31.3463 479.901 31.2804 479.818 31.1974C479.735 31.1144 479.669 31.0158 479.624 30.9073C479.579 30.7987 479.556 30.6824 479.556 30.5649V26.2209C479.556 26.1034 479.579 25.9871 479.624 25.8786C479.669 25.77 479.735 25.6714 479.818 25.5884C479.901 25.5054 480 25.4395 480.109 25.3947C480.217 25.3498 480.334 25.3268 480.451 25.3269C480.688 25.3269 480.916 25.4211 481.083 25.5887C481.251 25.7564 481.345 25.9838 481.345 26.2209V30.5649Z" fill="#80C9FF"/>
<path fill-rule="evenodd" clip-rule="evenodd" d="M481.345 39.041C481.345 39.2781 481.251 39.5055 481.083 39.6732C480.916 39.8408 480.688 39.935 480.451 39.935C480.334 39.9351 480.217 39.9121 480.109 39.8672C480 39.8224 479.901 39.7565 479.818 39.6735C479.735 39.5905 479.669 39.4919 479.624 39.3834C479.579 39.2748 479.556 39.1585 479.556 39.041V34.696C479.556 34.5785 479.579 34.4622 479.624 34.3537C479.669 34.2451 479.735 34.1465 479.818 34.0635C479.901 33.9805 480 33.9146 480.109 33.8698C480.217 33.8249 480.334 33.8019 480.451 33.802C480.688 33.802 480.916 33.8962 481.083 34.0639C481.251 34.2315 481.345 34.4589 481.345 34.696V39.041Z" fill="#80C9FF"/>
<path fill-rule="evenodd" clip-rule="evenodd" d="M482.515 33.3759C482.278 33.3759 482.051 33.2817 481.883 33.114C481.715 32.9464 481.621 32.719 481.621 32.4819C481.621 32.2448 481.715 32.0174 481.883 31.8497C482.051 31.6821 482.278 31.5879 482.515 31.5879H486.859C487.096 31.5879 487.323 31.6821 487.491 31.8497C487.659 32.0174 487.753 32.2448 487.753 32.4819C487.753 32.719 487.659 32.9464 487.491 33.114C487.323 33.2817 487.096 33.3759 486.859 33.3759H482.515Z" fill="#80C9FF"/>
<path fill-rule="evenodd" clip-rule="evenodd" d="M474.04 33.3759C473.803 33.3759 473.575 33.2817 473.408 33.114C473.24 32.9464 473.146 32.719 473.146 32.4819C473.146 32.2448 473.24 32.0174 473.408 31.8497C473.575 31.6821 473.803 31.5879 474.04 31.5879H478.384C478.621 31.5879 478.848 31.6821 479.016 31.8497C479.184 32.0174 479.278 32.2448 479.278 32.4819C479.278 32.719 479.184 32.9464 479.016 33.114C478.848 33.2817 478.621 33.3759 478.384 33.3759H474.04Z" fill="#80C9FF"/>
<path fill-rule="evenodd" clip-rule="evenodd" d="M127.903 34.852C127.903 34.9649 127.881 35.0768 127.838 35.1811C127.794 35.2854 127.731 35.3802 127.651 35.4601C127.571 35.54 127.476 35.6033 127.372 35.6465C127.268 35.6897 127.156 35.712 127.043 35.712C126.93 35.7121 126.818 35.69 126.714 35.6468C126.609 35.6037 126.514 35.5403 126.434 35.4605C126.354 35.3806 126.291 35.2857 126.248 35.1813C126.204 35.0769 126.182 34.965 126.182 34.852V30.673C126.182 30.56 126.204 30.4481 126.248 30.3436C126.291 30.2392 126.354 30.1444 126.434 30.0645C126.514 29.9847 126.609 29.9213 126.714 29.8782C126.818 29.835 126.93 29.8129 127.043 29.813C127.156 29.813 127.268 29.8352 127.372 29.8785C127.476 29.9217 127.571 29.985 127.651 30.0649C127.731 30.1447 127.794 30.2395 127.838 30.3439C127.881 30.4482 127.903 30.5601 127.903 30.673V34.852Z" fill="#80C9FF"/>
<path fill-rule="evenodd" clip-rule="evenodd" d="M127.903 43.006C127.903 43.119 127.881 43.2308 127.838 43.3351C127.794 43.4395 127.731 43.5343 127.651 43.6142C127.571 43.694 127.476 43.7574 127.372 43.8006C127.268 43.8438 127.156 43.866 127.043 43.866C126.93 43.8662 126.818 43.844 126.714 43.8009C126.609 43.7577 126.514 43.6944 126.434 43.6145C126.354 43.5346 126.291 43.4398 126.248 43.3354C126.204 43.231 126.182 43.1191 126.182 43.006V38.827C126.182 38.714 126.204 38.6021 126.248 38.4977C126.291 38.3933 126.354 38.2984 126.434 38.2186C126.514 38.1387 126.609 38.0754 126.714 38.0322C126.818 37.9891 126.93 37.9669 127.043 37.967C127.156 37.967 127.268 37.9893 127.372 38.0325C127.476 38.0757 127.571 38.1391 127.651 38.2189C127.731 38.2988 127.794 38.3936 127.838 38.4979C127.881 38.6023 127.903 38.7141 127.903 38.827V43.006Z" fill="#80C9FF"/>
<path fill-rule="evenodd" clip-rule="evenodd" d="M129.03 37.5559C128.802 37.5559 128.583 37.4653 128.422 37.3041C128.261 37.1428 128.17 36.924 128.17 36.6959C128.17 36.4679 128.261 36.2491 128.422 36.0878C128.583 35.9265 128.802 35.8359 129.03 35.8359H133.209C133.437 35.8359 133.656 35.9265 133.817 36.0878C133.978 36.2491 134.069 36.4679 134.069 36.6959C134.069 36.924 133.978 37.1428 133.817 37.3041C133.656 37.4653 133.437 37.5559 133.209 37.5559H129.03Z" fill="#80C9FF"/>
<path fill-rule="evenodd" clip-rule="evenodd" d="M120.876 37.5559C120.648 37.5559 120.429 37.4653 120.268 37.3041C120.107 37.1428 120.016 36.924 120.016 36.6959C120.016 36.4679 120.107 36.2491 120.268 36.0878C120.429 35.9265 120.648 35.8359 120.876 35.8359H125.055C125.283 35.8359 125.502 35.9265 125.663 36.0878C125.824 36.2491 125.915 36.4679 125.915 36.6959C125.915 36.924 125.824 37.1428 125.663 37.3041C125.502 37.4653 125.283 37.5559 125.055 37.5559H120.876Z" fill="#80C9FF"/>
<path fill-rule="evenodd" clip-rule="evenodd" d="M24.734 5.03998C24.734 5.26806 24.6434 5.48681 24.4821 5.64809C24.3208 5.80937 24.1021 5.89998 23.874 5.89998C23.6459 5.89998 23.4272 5.80937 23.2659 5.64809C23.1046 5.48681 23.014 5.26806 23.014 5.03998V0.860976C23.014 0.63289 23.1046 0.414146 23.2659 0.252865C23.4272 0.0915835 23.6459 0.000976562 23.874 0.000976562C24.1021 0.000976562 24.3208 0.0915835 24.4821 0.252865C24.6434 0.414146 24.734 0.63289 24.734 0.860976V5.03998Z" fill="#EDEDED"/>
<path fill-rule="evenodd" clip-rule="evenodd" d="M24.734 13.1961C24.734 13.4241 24.6434 13.6429 24.4821 13.8042C24.3208 13.9654 24.1021 14.0561 23.874 14.0561C23.6459 14.0561 23.4272 13.9654 23.2659 13.8042C23.1046 13.6429 23.014 13.4241 23.014 13.1961V9.01405C23.014 8.78597 23.1046 8.56722 23.2659 8.40594C23.4272 8.24466 23.6459 8.15405 23.874 8.15405C24.1021 8.15405 24.3208 8.24466 24.4821 8.40594C24.6434 8.56722 24.734 8.78597 24.734 9.01405V13.1961Z" fill="#EDEDED"/>
<path fill-rule="evenodd" clip-rule="evenodd" d="M25.86 7.74393C25.6319 7.74393 25.4132 7.65332 25.2519 7.49204C25.0906 7.33076 25 7.11201 25 6.88393C25 6.65584 25.0906 6.4371 25.2519 6.27581C25.4132 6.11453 25.6319 6.02393 25.86 6.02393H30.039C30.2671 6.02393 30.4858 6.11453 30.6471 6.27581C30.8084 6.4371 30.899 6.65584 30.899 6.88393C30.899 7.11201 30.8084 7.33076 30.6471 7.49204C30.4858 7.65332 30.2671 7.74393 30.039 7.74393H25.86Z" fill="#EDEDED"/>
<path fill-rule="evenodd" clip-rule="evenodd" d="M17.706 7.74393C17.4779 7.74393 17.2592 7.65332 17.0979 7.49204C16.9366 7.33076 16.846 7.11201 16.846 6.88393C16.846 6.65584 16.9366 6.4371 17.0979 6.27581C17.2592 6.11453 17.4779 6.02393 17.706 6.02393H21.889C22.1171 6.02393 22.3358 6.11453 22.4971 6.27581C22.6584 6.4371 22.749 6.65584 22.749 6.88393C22.749 7.11201 22.6584 7.33076 22.4971 7.49204C22.3358 7.65332 22.1171 7.74393 21.889 7.74393H17.706Z" fill="#EDEDED"/>
<path fill-rule="evenodd" clip-rule="evenodd" d="M47.735 192.866C47.735 192.979 47.7128 193.091 47.6695 193.195C47.6263 193.299 47.563 193.394 47.4831 193.474C47.4033 193.554 47.3085 193.617 47.2041 193.66C47.0998 193.704 46.9879 193.726 46.875 193.726C46.7621 193.726 46.6502 193.704 46.5459 193.66C46.4416 193.617 46.3468 193.554 46.2669 193.474C46.187 193.394 46.1237 193.299 46.0805 193.195C46.0373 193.091 46.015 192.979 46.015 192.866V188.687C46.015 188.574 46.0373 188.462 46.0805 188.358C46.1237 188.253 46.187 188.159 46.2669 188.079C46.3468 187.999 46.4416 187.936 46.5459 187.892C46.6502 187.849 46.7621 187.827 46.875 187.827C46.9879 187.827 47.0998 187.849 47.2041 187.892C47.3085 187.936 47.4033 187.999 47.4831 188.079C47.563 188.159 47.6263 188.253 47.6695 188.358C47.7128 188.462 47.735 188.574 47.735 188.687V192.866Z" fill="#EDEDED"/>
<path fill-rule="evenodd" clip-rule="evenodd" d="M47.735 201.019C47.735 201.132 47.7128 201.244 47.6695 201.348C47.6263 201.452 47.563 201.547 47.4831 201.627C47.4033 201.707 47.3085 201.77 47.2041 201.814C47.0998 201.857 46.9879 201.879 46.875 201.879C46.7621 201.879 46.6502 201.857 46.5459 201.814C46.4416 201.77 46.3468 201.707 46.2669 201.627C46.187 201.547 46.1237 201.452 46.0805 201.348C46.0373 201.244 46.015 201.132 46.015 201.019V196.84C46.015 196.612 46.1056 196.393 46.2669 196.232C46.4282 196.071 46.6469 195.98 46.875 195.98C47.1031 195.98 47.3218 196.071 47.4831 196.232C47.6444 196.393 47.735 196.612 47.735 196.84V201.019Z" fill="#EDEDED"/>
<path fill-rule="evenodd" clip-rule="evenodd" d="M48.862 195.57C48.6339 195.57 48.4152 195.479 48.2539 195.318C48.0926 195.157 48.002 194.938 48.002 194.71C48.002 194.482 48.0926 194.263 48.2539 194.102C48.4152 193.941 48.6339 193.85 48.862 193.85H53.041C53.1539 193.85 53.2658 193.872 53.3701 193.915C53.4745 193.959 53.5693 194.022 53.6491 194.102C53.729 194.182 53.7923 194.277 53.8355 194.381C53.8788 194.485 53.901 194.597 53.901 194.71C53.901 194.823 53.8788 194.935 53.8355 195.039C53.7923 195.143 53.729 195.238 53.6491 195.318C53.5693 195.398 53.4745 195.461 53.3701 195.505C53.2658 195.548 53.1539 195.57 53.041 195.57H48.862Z" fill="#EDEDED"/>
<path fill-rule="evenodd" clip-rule="evenodd" d="M40.708 195.57C40.4799 195.57 40.2612 195.479 40.0999 195.318C39.9386 195.157 39.848 194.938 39.848 194.71C39.848 194.482 39.9386 194.263 40.0999 194.102C40.2612 193.941 40.4799 193.85 40.708 193.85H44.889C45.1171 193.85 45.3359 193.941 45.4971 194.102C45.6584 194.263 45.749 194.482 45.749 194.71C45.749 194.938 45.6584 195.157 45.4971 195.318C45.3359 195.479 45.1171 195.57 44.889 195.57H40.708Z" fill="#EDEDED"/>
<path d="M410.178 32.6299H340.016C339.566 32.6299 339.202 32.9943 339.202 33.4439V85.7629C339.202 86.2124 339.566 86.5769 340.016 86.5769H410.178C410.628 86.5769 410.992 86.2124 410.992 85.7629V33.4439C410.992 32.9943 410.628 32.6299 410.178 32.6299Z" fill="white"/>
<path d="M409.989 33.6309V85.5779H340.199V33.6309H409.989ZM410.175 31.6309H340.016C339.535 31.6322 339.074 31.8239 338.734 32.1639C338.394 32.504 338.202 32.9649 338.201 33.4459V85.7629C338.203 86.2437 338.394 86.7043 338.734 87.0442C339.074 87.3841 339.535 87.5756 340.016 87.5769H410.177C410.658 87.5753 411.118 87.3837 411.458 87.0438C411.798 86.704 411.989 86.2435 411.991 85.7629V33.4449C411.99 32.9641 411.798 32.5034 411.458 32.1633C411.118 31.8232 410.658 31.6315 410.177 31.6299L410.175 31.6309Z" fill="#298EEA"/>
<path d="M340 44.696H411" stroke="#298EEA" stroke-miterlimit="10"/>
<path d="M404.515 41.0051C405.642 41.0051 406.556 40.0913 406.556 38.9641C406.556 37.8369 405.642 36.9231 404.515 36.9231C403.388 36.9231 402.474 37.8369 402.474 38.9641C402.474 40.0913 403.388 41.0051 404.515 41.0051Z" fill="#C9C9C9"/>
<path d="M396.349 41.0051C397.476 41.0051 398.39 40.0913 398.39 38.9641C398.39 37.8369 397.476 36.9231 396.349 36.9231C395.222 36.9231 394.308 37.8369 394.308 38.9641C394.308 40.0913 395.222 41.0051 396.349 41.0051Z" fill="#C9C9C9"/>
<path d="M388.184 41.0051C389.311 41.0051 390.225 40.0913 390.225 38.9641C390.225 37.8369 389.311 36.9231 388.184 36.9231C387.057 36.9231 386.143 37.8369 386.143 38.9641C386.143 40.0913 387.057 41.0051 388.184 41.0051Z" fill="#C9C9C9"/>
<path d="M364.411 74.4039C364.272 74.4038 364.135 74.3719 364.01 74.3105C363.886 74.2491 363.777 74.16 363.692 74.0499L356.25 64.3799L364.103 54.1799C364.176 54.0854 364.266 54.0062 364.369 53.9467C364.473 53.8872 364.587 53.8486 364.705 53.8331C364.823 53.8176 364.943 53.8256 365.058 53.8565C365.173 53.8875 365.281 53.9408 365.375 54.0134C365.47 54.086 365.549 54.1765 365.609 54.2798C365.668 54.383 365.707 54.497 365.722 54.6152C365.738 54.7333 365.73 54.8534 365.699 54.9685C365.668 55.0836 365.615 55.1914 365.542 55.2859L358.542 64.3859L365.134 72.9499C365.237 73.0842 365.301 73.2447 365.318 73.4132C365.334 73.5818 365.304 73.7517 365.229 73.9036C365.154 74.0556 365.038 74.1835 364.894 74.273C364.75 74.3625 364.584 74.4099 364.415 74.4099L364.411 74.4039Z" fill="#298EEA"/>
<path d="M384.789 74.4039C384.928 74.4038 385.065 74.3719 385.19 74.3105C385.314 74.2491 385.423 74.16 385.508 74.0499L392.95 64.3799L385.097 54.1799C384.95 53.9891 384.734 53.8643 384.495 53.8331C384.257 53.8019 384.015 53.8667 383.825 54.0134C383.634 54.1601 383.509 54.3765 383.478 54.6152C383.447 54.8538 383.511 55.0951 383.658 55.2859L390.658 64.3859L384.066 72.9499C383.963 73.0842 383.899 73.2447 383.882 73.4132C383.866 73.5818 383.896 73.7517 383.971 73.9036C384.046 74.0556 384.162 74.1835 384.306 74.273C384.45 74.3625 384.616 74.4099 384.785 74.4099L384.789 74.4039Z" fill="#298EEA"/>
<path d="M369.849 75.8589C369.723 75.8592 369.597 75.8326 369.482 75.7809C369.373 75.7329 369.274 75.6637 369.191 75.5772C369.108 75.4908 369.044 75.3888 369.001 75.2773C368.958 75.1657 368.937 75.0467 368.941 74.9272C368.944 74.8077 368.971 74.69 369.02 74.5809L378.699 52.7329C378.796 52.5129 378.977 52.3406 379.201 52.2539C379.426 52.1671 379.676 52.1731 379.896 52.2704C380.116 52.3678 380.288 52.5485 380.375 52.7729C380.461 52.9973 380.455 53.2469 380.358 53.4669L370.679 75.3179C370.608 75.4787 370.492 75.6154 370.344 75.7115C370.197 75.8075 370.025 75.8587 369.849 75.8589Z" fill="#298EEA"/>
<path d="M97.08 186.79C92.406 186.79 87.8369 185.404 83.9507 182.807C80.0644 180.21 77.0354 176.519 75.2468 172.201C73.4582 167.883 72.9902 163.131 73.9022 158.547C74.8141 153.963 77.0649 149.752 80.37 146.447C83.6751 143.142 87.886 140.892 92.4702 139.98C97.0545 139.068 101.806 139.536 106.124 141.325C110.442 143.114 114.133 146.143 116.73 150.029C119.326 153.916 120.712 158.485 120.712 163.159C120.705 169.424 118.213 175.431 113.782 179.861C109.352 184.291 103.345 186.783 97.08 186.79Z" fill="white"/>
<path d="M97.08 140.527C101.556 140.527 105.932 141.854 109.654 144.341C113.375 146.828 116.276 150.363 117.989 154.498C119.702 158.633 120.15 163.184 119.277 167.574C118.404 171.964 116.248 175.997 113.083 179.162C109.918 182.327 105.885 184.483 101.495 185.356C97.1051 186.229 92.5546 185.781 88.4191 184.068C84.2837 182.355 80.749 179.454 78.2622 175.733C75.7754 172.011 74.448 167.635 74.448 163.159C74.4546 157.159 76.8412 151.406 81.0841 147.163C85.327 142.92 91.0797 140.533 97.08 140.527ZM97.08 138.527C92.2083 138.527 87.4459 139.972 83.3952 142.678C79.3445 145.385 76.1873 149.232 74.323 153.733C72.4587 158.234 71.9709 163.186 72.9213 167.964C73.8717 172.742 76.2177 177.131 79.6626 180.576C83.1074 184.021 87.4964 186.367 92.2745 187.318C97.0527 188.268 102.005 187.78 106.506 185.916C111.007 184.052 114.854 180.894 117.561 176.844C120.267 172.793 121.712 168.031 121.712 163.159C121.712 156.626 119.117 150.361 114.497 145.741C109.878 141.122 103.613 138.527 97.08 138.527Z" fill="#298EEA"/>
<path d="M97.08 193.12C113.628 193.12 127.042 179.706 127.042 163.158C127.042 146.61 113.628 133.196 97.08 133.196C80.5325 133.196 67.118 146.61 67.118 163.158C67.118 179.706 80.5325 193.12 97.08 193.12Z" stroke="#DBF0FF" stroke-width="2" stroke-miterlimit="10"/>
<path d="M80.608 171.096C80.128 171.096 79.72 171.064 79.384 171V168.6C79.64 168.664 79.928 168.696 80.248 168.696C80.776 168.696 81.168 168.568 81.424 168.312C81.68 168.04 81.808 167.632 81.808 167.088V154.2H84.448V167.016C84.448 168.392 84.128 169.416 83.488 170.088C82.864 170.76 81.904 171.096 80.608 171.096Z" fill="#80C9FF"/>
<path d="M89.7676 171.24C88.4876 171.24 87.5196 170.88 86.8636 170.16C86.2076 169.424 85.8796 168.376 85.8796 167.016V166.056H88.3756V167.208C88.3756 168.296 88.8316 168.84 89.7436 168.84C90.1916 168.84 90.5276 168.712 90.7516 168.456C90.9916 168.184 91.1116 167.752 91.1116 167.16C91.1116 166.456 90.9516 165.84 90.6316 165.312C90.3116 164.768 89.7196 164.12 88.8556 163.368C87.7676 162.408 87.0076 161.544 86.5756 160.776C86.1436 159.992 85.9276 159.112 85.9276 158.136C85.9276 156.808 86.2636 155.784 86.9356 155.064C87.6076 154.328 88.5836 153.96 89.8636 153.96C91.1276 153.96 92.0796 154.328 92.7196 155.064C93.3756 155.784 93.7036 156.824 93.7036 158.184V158.88H91.2076V158.016C91.2076 157.44 91.0956 157.024 90.8716 156.768C90.6476 156.496 90.3196 156.36 89.8876 156.36C89.0076 156.36 88.5676 156.896 88.5676 157.968C88.5676 158.576 88.7276 159.144 89.0476 159.672C89.3836 160.2 89.9836 160.84 90.8476 161.592C91.9516 162.552 92.7116 163.424 93.1276 164.208C93.5436 164.992 93.7516 165.912 93.7516 166.968C93.7516 168.344 93.4076 169.4 92.7196 170.136C92.0476 170.872 91.0636 171.24 89.7676 171.24Z" fill="#80C9FF"/>
<path d="M99.0813 171.24C97.7853 171.24 96.7933 170.872 96.1053 170.136C95.4173 169.4 95.0733 168.36 95.0733 167.016V158.184C95.0733 156.84 95.4173 155.8 96.1053 155.064C96.7933 154.328 97.7853 153.96 99.0813 153.96C100.377 153.96 101.369 154.328 102.057 155.064C102.745 155.8 103.089 156.84 103.089 158.184V167.016C103.089 168.36 102.745 169.4 102.057 170.136C101.369 170.872 100.377 171.24 99.0813 171.24ZM99.0813 168.84C99.9933 168.84 100.449 168.288 100.449 167.184V158.016C100.449 156.912 99.9933 156.36 99.0813 156.36C98.1693 156.36 97.7133 156.912 97.7133 158.016V167.184C97.7133 168.288 98.1693 168.84 99.0813 168.84Z" fill="#80C9FF"/>
<path d="M104.875 154.2H108.187L110.755 164.256H110.803V154.2H113.155V171H110.443L107.275 158.736H107.227V171H104.875V154.2Z" fill="#80C9FF"/>
<path d="M444.615 219.485C458.219 219.485 469.247 208.457 469.247 194.853C469.247 181.249 458.219 170.221 444.615 170.221C431.011 170.221 419.983 181.249 419.983 194.853C419.983 208.457 431.011 219.485 444.615 219.485Z" fill="#298EEA"/>
<path d="M444.615 165.891C450.343 165.891 455.943 167.59 460.705 170.772C465.468 173.954 469.18 178.478 471.372 183.77C473.564 189.062 474.138 194.885 473.021 200.503C471.903 206.121 469.145 211.282 465.094 215.332C461.044 219.383 455.883 222.141 450.265 223.258C444.647 224.376 438.824 223.802 433.532 221.61C428.24 219.418 423.716 215.706 420.534 210.943C417.352 206.181 415.653 200.581 415.653 194.853C415.663 187.175 418.718 179.814 424.147 174.385C429.576 168.956 436.937 165.901 444.615 165.891ZM444.615 164.891C438.689 164.891 432.896 166.648 427.969 169.94C423.042 173.233 419.201 177.912 416.934 183.387C414.666 188.862 414.073 194.886 415.229 200.698C416.385 206.51 419.238 211.849 423.429 216.039C427.619 220.23 432.958 223.083 438.77 224.239C444.582 225.395 450.606 224.802 456.081 222.534C461.556 220.267 466.235 216.426 469.528 211.499C472.82 206.572 474.577 200.779 474.577 194.853C474.577 186.907 471.42 179.286 465.801 173.667C460.182 168.048 452.561 164.891 444.615 164.891Z" fill="#298EEA"/>
<path d="M67.117 89.9531C60.2835 89.9531 53.6034 87.9267 47.9215 84.1302C42.2396 80.3337 37.8111 74.9375 35.1961 68.6242C32.581 62.3108 31.8968 55.3638 33.2299 48.6615C34.5631 41.9593 37.8537 35.8029 42.6858 30.9708C47.5178 26.1388 53.6742 22.8481 60.3765 21.515C67.0787 20.1818 74.0257 20.866 80.3391 23.4811C86.6525 26.0962 92.0486 30.5247 95.8451 36.2066C99.6416 41.8885 101.668 48.5685 101.668 55.4021C101.658 64.5624 98.0142 73.3446 91.5369 79.8219C85.0595 86.2993 76.2774 89.9428 67.117 89.9531Z" fill="white"/>
<path d="M67.118 21.8521C73.7538 21.8521 80.2406 23.8198 85.758 27.5065C91.2755 31.1932 95.5758 36.4332 98.1152 42.5639C100.655 48.6946 101.319 55.4406 100.024 61.9489C98.7296 68.4572 95.5341 74.4354 90.8418 79.1275C86.1495 83.8197 80.1712 87.015 73.6629 88.3095C67.1545 89.604 60.4085 88.9394 54.2779 86.3998C48.1473 83.8603 42.9074 79.5598 39.2209 74.0423C35.5344 68.5247 33.5668 62.0379 33.567 55.4021C33.5773 46.507 37.1155 37.9793 43.4053 31.6897C49.6952 25.4 58.223 21.8621 67.118 21.8521ZM67.118 19.8521C60.0867 19.8521 53.2133 21.9371 47.3669 25.8435C41.5206 29.7499 36.9639 35.3022 34.2732 41.7983C31.5824 48.2944 30.8784 55.4425 32.2501 62.3387C33.6218 69.2349 37.0078 75.5695 41.9797 80.5414C46.9515 85.5133 53.2861 88.8992 60.1823 90.271C67.0786 91.6427 74.2267 90.9387 80.7228 88.2479C87.2189 85.5571 92.7712 81.0005 96.6776 75.1541C100.584 69.3078 102.669 62.4344 102.669 55.4031C102.669 45.9743 98.9235 36.9318 92.2564 30.2647C85.5892 23.5976 76.5467 19.8521 67.118 19.8521Z" fill="#298EEA"/>
<path d="M67.118 98.647C91.0016 98.647 110.363 79.2855 110.363 55.402C110.363 31.5184 91.0016 12.157 67.118 12.157C43.2345 12.157 23.873 31.5184 23.873 55.402C23.873 79.2855 43.2345 98.647 67.118 98.647Z" stroke="#DBF0FF" stroke-miterlimit="10"/>
<path d="M43.6639 53.0209L43.7349 53.8401C44.2294 53.208 44.8938 52.8919 45.728 52.8919C46.6095 52.8919 47.2051 53.2424 47.5147 53.9433C47.9877 53.2424 48.6714 52.8919 49.5659 52.8919C50.9806 52.8919 51.7073 53.7476 51.746 55.4591V60H49.5659V55.5945C49.5659 55.2376 49.5057 54.9775 49.3853 54.8141C49.2649 54.6507 49.0455 54.569 48.7273 54.569C48.2973 54.569 47.977 54.7603 47.7663 55.143L47.7727 55.2333V60H45.5925V55.6074C45.5925 55.2419 45.5345 54.9775 45.4184 54.8141C45.3023 54.6507 45.0808 54.569 44.754 54.569C44.3369 54.569 44.0187 54.7603 43.7994 55.143V60H41.6257V53.0209H43.6639Z" fill="#80C9FF"/>
<path d="M59.4669 56.5685C59.4669 57.7124 59.2304 58.5917 58.7574 59.2067C58.2844 59.8216 57.6179 60.129 56.7578 60.129C56.0483 60.129 55.4764 59.8474 55.0421 59.2841L54.9518 60H53.0038V50.0925H55.1775V53.5821C55.5817 53.122 56.1042 52.8919 56.7449 52.8919C57.6136 52.8919 58.2844 53.2037 58.7574 53.8272C59.2304 54.4507 59.4669 55.3279 59.4669 56.4589V56.5685ZM57.2867 56.4331C57.2867 55.7623 57.1964 55.2849 57.0158 55.0011C56.8395 54.713 56.5665 54.569 56.1967 54.569C55.7064 54.569 55.3667 54.756 55.1775 55.1301V57.9037C55.3624 58.2735 55.7064 58.4584 56.2096 58.4584C56.7213 58.4584 57.0459 58.209 57.1835 57.7102C57.2523 57.4651 57.2867 57.0394 57.2867 56.4331Z" fill="#80C9FF"/>
<path d="M64.0853 58.0392C64.0853 57.8543 63.9885 57.7059 63.795 57.5941C63.6015 57.4823 63.2338 57.3662 62.692 57.2458C62.1502 57.1254 61.703 56.9684 61.3504 56.7749C60.9978 56.5771 60.729 56.3385 60.5441 56.059C60.3592 55.7795 60.2667 55.4591 60.2667 55.0979C60.2667 54.4572 60.5312 53.9304 61.0601 53.5176C61.589 53.1005 62.2813 52.8919 63.1371 52.8919C64.0573 52.8919 64.7969 53.1005 65.3559 53.5176C65.915 53.9347 66.1945 54.483 66.1945 55.1624H64.0143C64.0143 54.6034 63.7197 54.3239 63.1306 54.3239C62.9027 54.3239 62.7114 54.3884 62.5566 54.5174C62.4018 54.6421 62.3243 54.799 62.3243 54.9882C62.3243 55.1817 62.419 55.3387 62.6082 55.4591C62.7974 55.5795 63.0984 55.6784 63.5112 55.7558C63.9283 55.8332 64.2938 55.9257 64.6077 56.0332C65.6569 56.3944 66.1816 57.0415 66.1816 57.9747C66.1816 58.6111 65.8978 59.1293 65.3301 59.5292C64.7668 59.9291 64.0358 60.129 63.1371 60.129C62.5394 60.129 62.0061 60.0215 61.5374 59.8065C61.0687 59.5915 60.7032 59.2991 60.4409 58.9293C60.1786 58.5595 60.0474 58.1703 60.0474 57.7618H62.0792C62.0878 58.0843 62.1953 58.3208 62.4018 58.4713C62.6082 58.6175 62.8726 58.6906 63.1951 58.6906C63.4918 58.6906 63.7133 58.6304 63.8595 58.51C64.01 58.3896 64.0853 58.2327 64.0853 58.0392Z" fill="#80C9FF"/>
<path d="M69.7356 51.2858V53.0209H70.8838V54.5303H69.7356V57.7231C69.7356 57.9854 69.7829 58.1682 69.8775 58.2714C69.9721 58.3746 70.1592 58.4262 70.4387 58.4262C70.6537 58.4262 70.8343 58.4133 70.9805 58.3875V59.942C70.5892 60.0667 70.1807 60.129 69.755 60.129C69.0068 60.129 68.4542 59.9527 68.0973 59.6001C67.7404 59.2475 67.5619 58.7121 67.5619 57.994V54.5303H66.6718V53.0209H67.5619V51.2858H69.7356Z" fill="#80C9FF"/>
<path d="M75.9665 54.9882L75.2505 54.9366C74.5668 54.9366 74.1282 55.1516 73.9347 55.5816V60H71.761V53.0209H73.7992L73.8702 53.9175C74.2357 53.2338 74.7453 52.8919 75.3989 52.8919C75.6311 52.8919 75.8332 52.9177 76.0052 52.9693L75.9665 54.9882Z" fill="#80C9FF"/>
<path d="M79.0433 60H76.8631V53.0209H79.0433V60ZM76.7341 51.2213C76.7341 50.9117 76.8459 50.658 77.0695 50.4602C77.2931 50.2624 77.5834 50.1635 77.9403 50.1635C78.2972 50.1635 78.5874 50.2624 78.811 50.4602C79.0347 50.658 79.1465 50.9117 79.1465 51.2213C79.1465 51.5309 79.0347 51.7846 78.811 51.9824C78.5874 52.1802 78.2972 52.2791 77.9403 52.2791C77.5834 52.2791 77.2931 52.1802 77.0695 51.9824C76.8459 51.7846 76.7341 51.5309 76.7341 51.2213Z" fill="#80C9FF"/>
<path d="M82.3845 53.0209L82.4554 53.8401C82.937 53.208 83.6014 52.8919 84.4485 52.8919C85.1752 52.8919 85.7171 53.1091 86.074 53.5434C86.4352 53.9777 86.6222 54.6313 86.6351 55.5042V60H84.455V55.5945C84.455 55.2419 84.384 54.9839 84.2421 54.8205C84.1002 54.6528 83.8422 54.569 83.4681 54.569C83.0424 54.569 82.7263 54.7367 82.5199 55.0721V60H80.3462V53.0209H82.3845Z" fill="#80C9FF"/>
<path d="M87.5898 56.4589C87.5898 55.7537 87.7059 55.1301 87.9381 54.5883C88.1703 54.0465 88.5035 53.6294 88.9379 53.337C89.3722 53.0403 89.8774 52.8919 90.4537 52.8919C91.1804 52.8919 91.748 53.137 92.1565 53.6272L92.2339 53.0209H94.2077V59.7356C94.2077 60.3505 94.0636 60.8837 93.7755 61.3352C93.4917 61.791 93.0789 62.1393 92.5371 62.3802C91.9952 62.6253 91.3674 62.7478 90.6536 62.7478C90.1419 62.7478 89.6452 62.6511 89.1636 62.4576C88.6863 62.264 88.3208 62.0125 88.0671 61.7029L88.9766 60.4257C89.3808 60.9031 89.914 61.1417 90.5762 61.1417C91.5394 61.1417 92.021 60.6472 92.021 59.6582V59.4389C91.6039 59.899 91.0772 60.129 90.4408 60.129C89.5893 60.129 88.9013 59.8044 88.3767 59.1551C87.8521 58.5014 87.5898 57.6285 87.5898 56.5363V56.4589ZM89.7699 56.5943C89.7699 57.1662 89.8774 57.6199 90.0924 57.9553C90.3074 58.2864 90.6085 58.452 90.9955 58.452C91.4642 58.452 91.806 58.295 92.021 57.9811V55.0463C91.8103 54.7281 91.4728 54.569 91.0084 54.569C90.6214 54.569 90.3182 54.7431 90.0989 55.0914C89.8796 55.4354 89.7699 55.9364 89.7699 56.5943Z" fill="#80C9FF"/>
<path d="M89.883 209.832H51.315V266.877H97.673V218.422L89.883 209.832Z" fill="white" stroke="#298EEA" stroke-width="2" stroke-miterlimit="10" stroke-linecap="round"/>
<path d="M76.082 217.029H56.582V219.696H76.082V217.029Z" fill="#DEF1FF"/>
<path d="M76.082 226.576H56.582V229.243H76.082V226.576Z" fill="#DEF1FF"/>
<path d="M86.728 236.122H56.582V238.789H86.728V236.122Z" fill="#DEF1FF"/>
<path d="M86.728 245.669H56.582V248.336H86.728V245.669Z" fill="#DEF1FF"/>
<path d="M341.31 277.688C340.38 277.928 339.518 278.15 338.656 278.374C333.656 279.674 328.659 280.974 323.665 282.274C320.321 283.138 316.971 283.982 313.623 284.836C312.99 285.005 312.342 285.112 311.688 285.153C310.728 285.245 309.763 285.059 308.906 284.617C308.049 284.175 307.337 283.497 306.855 282.662C306.657 282.335 306.481 281.995 306.326 281.646C302.409 273.186 298.495 264.725 294.582 256.263C289.987 246.31 285.395 236.354 280.808 226.396C280.122 224.908 279.457 223.41 278.785 221.915C278.46 221.222 278.233 220.486 278.112 219.73C278.059 219.388 278.07 219.038 278.145 218.7C278.194 218.448 278.302 218.212 278.461 218.011C278.62 217.809 278.825 217.649 279.058 217.543C279.32 217.417 279.598 217.326 279.884 217.273C280.295 217.201 280.716 217.181 281.132 217.143C281.821 217.08 282.509 217.018 283.198 216.959C283.688 216.916 284.177 216.872 284.667 216.835C285.302 216.787 285.939 216.75 286.574 216.699C287.227 216.646 287.874 216.579 288.531 216.52C289.002 216.478 289.474 216.437 289.946 216.401C290.581 216.353 291.218 216.315 291.853 216.265C292.524 216.212 293.195 216.148 293.866 216.089C294.356 216.046 294.845 216.002 295.335 215.965C295.97 215.917 296.607 215.879 297.242 215.829C297.95 215.773 298.656 215.708 299.364 215.649C299.908 215.603 300.452 215.557 300.997 215.518C301.687 215.469 302.378 215.433 303.068 215.381C303.758 215.329 304.445 215.237 305.136 215.209C306.155 215.167 307.169 215.018 308.191 215.069C308.499 215.084 308.806 215.122 309.112 215.163C309.439 215.203 309.754 215.312 310.037 215.48C310.32 215.649 310.564 215.875 310.755 216.144C311.155 216.685 311.549 217.236 311.896 217.812C313.71 220.823 315.515 223.84 317.312 226.861C323.045 236.442 328.779 246.024 334.512 255.605C337.512 260.622 340.512 265.641 343.512 270.66C343.651 270.893 343.799 271.121 343.923 271.32C343.985 271.341 344.002 271.348 344.023 271.352C344.04 271.359 344.058 271.363 344.076 271.362C357.496 268.152 370.915 264.941 384.334 261.73C384.368 261.718 384.4 261.7 384.427 261.676C384.443 261.659 384.457 261.641 384.468 261.621C384.498 261.445 384.358 261.333 384.268 261.205C383.515 260.13 382.76 259.058 382.003 257.987L371.311 242.856C371.071 242.556 370.883 242.218 370.755 241.856C370.694 241.673 370.689 241.477 370.741 241.291C370.794 241.106 370.9 240.94 371.047 240.816C371.304 240.581 371.617 240.415 371.956 240.334C372.43 240.207 372.909 240.096 373.392 240.012C374.878 239.752 376.367 239.504 377.855 239.258C379.272 239.023 380.691 238.799 382.108 238.558C383.308 238.358 384.508 238.141 385.708 237.942C386.928 237.742 388.15 237.551 389.37 237.353C390.357 237.193 391.344 237.032 392.33 236.865C392.963 236.743 393.619 236.864 394.168 237.203C394.54 237.431 394.886 237.7 395.199 238.003C395.612 238.413 396.002 238.847 396.365 239.303C399.868 243.641 403.368 247.982 406.865 252.325C408.365 254.183 409.875 256.031 411.376 257.886C411.515 258.054 411.635 258.237 411.732 258.432C411.788 258.522 411.825 258.622 411.841 258.727C411.857 258.831 411.852 258.938 411.826 259.04C411.801 259.143 411.755 259.239 411.691 259.324C411.627 259.408 411.547 259.479 411.456 259.532C411.201 259.705 410.922 259.839 410.628 259.932C410.092 260.105 409.544 260.238 408.999 260.383C403.536 261.84 398.072 263.298 392.609 264.755C392.471 264.792 392.338 264.849 392.197 264.9C392.234 265.103 392.336 265.289 392.487 265.431C393.356 266.601 394.233 267.765 395.102 268.931C399.395 274.707 403.687 280.484 407.978 286.261C408.249 286.627 408.521 286.993 408.764 287.378C408.914 287.627 409.039 287.89 409.137 288.163C409.213 288.352 409.226 288.56 409.173 288.756C409.12 288.953 409.005 289.127 408.845 289.252C408.642 289.435 408.416 289.588 408.171 289.709C407.699 289.944 407.215 290.155 406.721 290.341C402.536 291.872 398.353 293.41 394.158 294.913C384.825 298.257 375.489 301.59 366.15 304.913C364.686 305.464 363.193 305.936 361.679 306.328C361.203 306.449 360.719 306.537 360.231 306.589C359.61 306.645 358.986 306.512 358.441 306.208C358.09 306.013 357.768 305.77 357.485 305.486C356.953 304.96 356.488 304.37 356.102 303.729C355.326 302.453 354.541 301.182 353.802 299.884C351.246 295.387 348.701 290.884 346.168 286.375C344.633 283.644 343.126 280.898 341.606 278.159C341.523 278.025 341.424 277.875 341.31 277.688ZM338.3 272.281C338.281 272.179 338.252 272.078 338.215 271.981C338.127 271.781 338.029 271.586 337.92 271.397C334.828 266.054 331.734 260.711 328.639 255.369L316.729 234.803C313.729 229.618 310.729 224.432 307.729 219.245C307.652 219.07 307.52 218.926 307.353 218.834C307.185 218.742 306.993 218.708 306.804 218.736C306.224 218.791 305.643 218.828 305.062 218.876C304.609 218.914 304.156 218.956 303.702 218.998C303.086 219.055 302.47 219.116 301.854 219.169C301.254 219.221 300.654 219.262 300.054 219.312C299.601 219.35 299.148 219.395 298.695 219.437C298.095 219.493 297.495 219.553 296.902 219.605C296.309 219.657 295.702 219.699 295.102 219.748C294.667 219.784 294.232 219.822 293.797 219.863C293.217 219.919 292.639 219.985 292.059 220.036C291.459 220.088 290.859 220.124 290.259 220.173C289.751 220.215 289.244 220.265 288.736 220.312C288.12 220.369 287.504 220.43 286.888 220.481C286.272 220.532 285.654 220.573 285.037 220.623C284.892 220.636 284.748 220.658 284.605 220.689C284.39 220.733 284.275 220.847 284.292 221.064C284.308 221.281 284.356 221.494 284.433 221.697C284.544 221.985 284.692 222.258 284.827 222.537C290.885 235.018 296.943 247.5 303.001 259.981C305.884 265.928 308.758 271.88 311.623 277.836C311.734 278.065 311.831 278.301 311.94 278.536C311.98 278.669 312.071 278.781 312.192 278.849C312.313 278.917 312.456 278.935 312.59 278.9C312.662 278.889 312.734 278.874 312.804 278.855C313.637 278.665 314.471 278.48 315.304 278.283C319.054 277.394 322.803 276.503 326.552 275.61C330.177 274.747 333.802 273.882 337.426 273.015C337.604 272.978 337.779 272.926 337.948 272.86C338.063 272.817 338.161 272.737 338.225 272.631C338.289 272.526 338.315 272.402 338.3 272.28V272.281ZM346.88 276.272C346.918 276.46 346.996 276.637 347.11 276.791C350.569 282.74 354.03 288.689 357.491 294.638C358.188 295.834 358.896 297.023 359.617 298.204C359.856 298.591 360.129 298.955 360.434 299.293C360.616 299.525 360.872 299.688 361.16 299.754C361.447 299.821 361.749 299.787 362.014 299.658C362.483 299.463 362.969 299.307 363.451 299.143L397.901 287.45C398.968 287.088 400.034 286.724 401.101 286.358C401.307 286.29 401.508 286.207 401.701 286.108C401.79 286.082 401.871 286.034 401.937 285.969C402.003 285.904 402.052 285.823 402.079 285.734C402.105 285.645 402.11 285.551 402.091 285.46C402.072 285.369 402.03 285.285 401.97 285.214C401.917 285.118 401.859 285.026 401.797 284.936C401.663 284.736 401.529 284.546 401.389 284.355C399.317 281.516 397.245 278.677 395.172 275.838C392.858 272.657 390.548 269.473 388.242 266.286C388.169 266.18 388.088 266.08 388 265.986C387.901 265.866 387.769 265.777 387.62 265.731C387.471 265.684 387.312 265.681 387.162 265.723C386.847 265.809 386.532 265.897 386.216 265.979C384.423 266.449 382.629 266.918 380.836 267.387C376.14 268.608 371.443 269.829 366.746 271.048C362.489 272.156 358.233 273.266 353.978 274.377C351.727 274.964 349.475 275.549 347.224 276.133C347.107 276.172 346.992 276.218 346.88 276.271V276.272ZM388.83 260.657C388.951 260.639 389.023 260.634 389.092 260.617C390.732 260.211 392.371 259.8 394.011 259.397C397.063 258.646 400.116 257.897 403.169 257.15C403.663 257.029 404.159 256.914 404.648 256.775C404.875 256.712 405.093 256.619 405.296 256.498C405.36 256.471 405.417 256.429 405.462 256.376C405.507 256.322 405.537 256.258 405.551 256.19C405.566 256.122 405.563 256.051 405.543 255.984C405.524 255.917 405.489 255.856 405.44 255.806C405.35 255.67 405.24 255.545 405.14 255.416C401.908 251.309 398.675 247.202 395.44 243.095C394.922 242.437 394.411 241.773 393.899 241.11C393.726 240.861 393.482 240.671 393.198 240.564C392.915 240.457 392.606 240.438 392.312 240.51C390.92 240.777 389.526 241.033 388.133 241.29C386.221 241.643 384.31 241.998 382.396 242.341C380.84 242.62 379.281 242.882 377.723 243.151C377.523 243.185 377.323 243.212 377.133 243.251C376.619 243.362 376.495 243.621 376.749 244.074C376.86 244.262 376.982 244.444 377.114 244.618C380.904 249.813 384.692 255.005 388.479 260.196C388.589 260.346 388.699 260.487 388.83 260.656V260.657Z" fill="#298EEA"/>
<path d="M435.732 196.795C435.732 198.436 435.361 199.747 434.619 200.73C433.883 201.707 432.887 202.195 431.631 202.195C430.661 202.195 429.863 201.84 429.238 201.131V206.062H425.947V191.434H429.023L429.121 192.41C429.753 191.629 430.583 191.238 431.611 191.238C432.913 191.238 433.926 191.72 434.648 192.684C435.371 193.641 435.732 194.959 435.732 196.639V196.795ZM432.441 196.59C432.441 194.715 431.895 193.777 430.801 193.777C430.02 193.777 429.499 194.057 429.238 194.617V198.777C429.525 199.363 430.052 199.656 430.82 199.656C431.868 199.656 432.409 198.751 432.441 196.941V196.59Z" fill="white"/>
<path d="M440.41 192.566C441.113 191.681 442.012 191.238 443.105 191.238C444.271 191.238 445.15 191.583 445.742 192.273C446.335 192.964 446.637 193.982 446.65 195.33V202H443.35V195.408C443.35 194.848 443.236 194.438 443.008 194.178C442.78 193.911 442.393 193.777 441.846 193.777C441.169 193.777 440.69 193.992 440.41 194.422V202H437.119V187H440.41V192.566Z" fill="white"/>
<path d="M454.434 202C454.316 201.785 454.212 201.469 454.121 201.053C453.516 201.814 452.669 202.195 451.582 202.195C450.586 202.195 449.74 201.896 449.043 201.297C448.346 200.691 447.998 199.933 447.998 199.021C447.998 197.876 448.421 197.01 449.268 196.424C450.114 195.838 451.344 195.545 452.959 195.545H453.975V194.988C453.975 194.018 453.555 193.533 452.715 193.533C451.934 193.533 451.543 193.917 451.543 194.686H448.252C448.252 193.663 448.685 192.833 449.551 192.195C450.423 191.557 451.533 191.238 452.881 191.238C454.229 191.238 455.293 191.567 456.074 192.225C456.855 192.882 457.256 193.784 457.275 194.93V199.607C457.288 200.577 457.438 201.32 457.725 201.834V202H454.434ZM452.373 199.852C452.783 199.852 453.122 199.764 453.389 199.588C453.662 199.412 453.857 199.214 453.975 198.992V197.303H453.018C451.872 197.303 451.299 197.817 451.299 198.846C451.299 199.145 451.4 199.389 451.602 199.578C451.803 199.76 452.061 199.852 452.373 199.852Z" fill="white"/>
<path d="M465.498 194.412L464.414 194.334C463.379 194.334 462.715 194.66 462.422 195.311V202H459.131V191.434H462.217L462.324 192.791C462.878 191.756 463.649 191.238 464.639 191.238C464.99 191.238 465.296 191.277 465.557 191.355L465.498 194.412Z" fill="white"/>
</g>
<defs>
<clipPath id="clip0">
<rect width="507" height="347.196" fill="white"/>
</clipPath>
</defs>
</svg>
