<svg width="79" height="47" viewBox="0 0 79 47" fill="none" xmlns="http://www.w3.org/2000/svg">
<path d="M70.2278 22.1945C68.8146 22.1945 67.8889 23.9426 67.8889 26.3316C67.8889 27.9643 68.3779 28.7222 69.4128 28.7222C70.826 28.7222 71.8056 27.0318 71.8056 24.6411C71.8056 23.0677 71.2612 22.1945 70.2278 22.1945Z" fill="#CB151D"/>
<path d="M55.4314 27.5087C55.4314 28.1599 55.8 28.522 56.3523 28.522C57.5974 28.522 58.0572 27.5087 58.1041 26.0798C57.828 26.0798 57.7811 26.0342 57.5974 26.0342C56.1686 26.0342 55.4314 26.5865 55.4314 27.5087Z" fill="#CB151D"/>
<path d="M55.0185 0.000133809C49.191 -0.00570038 43.571 2.16334 39.2584 6.08276C38.4181 6.85453 37.6345 7.68594 36.9139 8.57052H41.6029C42.2829 9.33818 42.885 10.1715 43.4003 11.0583H35.1113C34.6476 11.8163 34.2256 12.5744 33.8387 13.3337C33.8049 13.4041 33.7723 13.4757 33.7384 13.5473H44.7875C45.1556 14.3774 45.4782 15.2067 45.7552 16.0351H32.7616C32.489 16.8521 32.2582 17.6824 32.0699 18.5228H46.4468C46.5493 18.9865 46.6361 19.4502 46.7073 19.9139L46.7191 19.9061L46.9952 19.9973C47.4328 19.5042 47.9464 19.0843 48.5165 18.7534C49.298 18.2467 50.0365 18.2467 51.2804 18.2467C51.6692 18.2384 52.0572 18.2849 52.4331 18.3848L53.492 18.6153C53.815 18.7534 53.8606 18.7534 54.0911 18.8459L53.677 21.4717C52.7548 21.0119 52.114 20.8269 51.4184 20.8269C49.4829 20.8269 48.1935 22.67 48.1935 25.2554C48.1935 27.0984 49.0687 28.1587 50.5379 28.1587C51.1892 28.1587 51.8743 27.975 52.704 27.5595L52.252 30.2726C51.3299 30.5487 50.732 30.6412 50.0378 30.6412C48.4357 30.6412 47.1593 29.9743 46.3687 28.7956C46.1968 29.5185 45.9936 30.2413 45.7526 30.9642H32.7616C33.0243 31.8003 33.3415 32.6183 33.7111 33.4129C33.7111 33.4259 33.7241 33.439 33.7293 33.452H44.7875C44.382 34.3111 43.9203 35.1426 43.4055 35.941H35.1113C35.6582 36.8068 36.2585 37.6376 36.9087 38.4288H41.655C40.9035 39.3024 40.1034 40.133 39.2584 40.9165C42.6285 43.9703 46.8128 45.98 51.3031 46.7015C55.7934 47.4229 60.3966 46.8252 64.5537 44.9808C68.7108 43.1365 72.243 40.1248 74.7215 36.3116C77.1999 32.4983 78.5179 28.0476 78.5154 23.4997C78.5154 10.5516 68.0108 0.000133809 55.0185 0.000133809ZM60.3587 28.7096L60.2675 29.3075L60.1751 29.8141L60.1282 30.1371V30.4133H57.9139L57.9608 29.3999C57.4073 30.1814 56.6701 30.5982 55.2881 30.5982C54.0443 30.5982 52.9436 29.538 52.9436 27.9255C52.9892 25.6214 54.6942 24.1939 57.4581 24.1939C57.8277 24.1881 58.1973 24.2033 58.5652 24.2395C58.6322 24.0291 58.663 23.8089 58.6564 23.5882C58.6564 22.9435 58.1497 22.7585 56.9514 22.7585C56.2369 22.7704 55.526 22.863 54.8323 23.0347L54.4637 23.1727H54.3256L54.6942 21.008C55.8925 20.6394 56.7209 20.5013 57.643 20.5013C59.8573 20.5013 61.0061 21.4678 61.0061 23.3577C61.0355 23.9905 60.9891 24.6245 60.868 25.2463L60.3587 28.7096ZM71.1876 30.4133L71.3257 29.4468C70.6341 30.2283 69.893 30.5513 68.9747 30.5513C67.1317 30.5513 65.8487 28.9389 65.8487 26.4967C65.8485 25.526 66.0042 24.5616 66.3098 23.6403C65.9868 23.6403 65.5726 23.7784 65.204 24.2395C65.019 24.47 64.3743 25.2072 64.3743 25.2072L63.5446 30.4172H60.9605L62.5235 20.741H65.2418L65.1037 21.7556L66.7201 22.7182C67.5016 21.2854 68.7481 20.5521 70.0844 20.5521C71.0509 20.5521 71.7881 20.9663 72.3872 21.8885L72.9408 18.4786H75.5666L73.6324 30.412L71.1876 30.4133Z" fill="#CB151D"/>
<path d="M15.2522 27.5087C15.2522 28.1599 15.6208 28.522 16.1743 28.522C17.4182 28.522 17.8793 27.5087 17.9249 26.0798C17.6487 26.0798 17.6019 26.0342 17.4182 26.0342C15.9894 26.0342 15.2522 26.5865 15.2522 27.5087Z" fill="#F39A00"/>
<path d="M33.7293 33.4519L33.711 33.4128C32.2627 30.3089 31.514 26.9248 31.5177 23.4996C31.5177 23.3915 31.5177 23.2847 31.5177 23.1766H30.6841L29.9963 27.1466C29.9963 27.2846 29.9508 27.4227 29.9508 27.5152C29.9508 28.0218 30.2269 28.2524 30.826 28.2524C31.0889 28.2466 31.3506 28.2157 31.6075 28.1599L31.2871 30.2725C30.662 30.4775 30.0094 30.5864 29.3516 30.5956C28.1533 30.5956 27.4161 29.8583 27.4161 28.4764C27.4267 28.1824 27.4576 27.8895 27.5086 27.5998L27.6467 26.679L27.7847 25.8975L28.8905 19.2626H31.3327L31.0527 20.7344H31.6766C31.9706 18.2434 32.6656 15.8164 33.7345 13.5473H33.7254C33.7605 13.4756 33.7983 13.404 33.8348 13.3337C35.1647 10.5935 37.0055 8.13251 39.2584 6.08269C34.9501 2.15629 29.3273 -0.0138391 23.4982 6.64156e-05C10.5046 6.64156e-05 4.11562e-06 10.5502 4.11562e-06 23.4996C-0.00268783 28.0477 1.31523 32.4988 3.79372 36.3123C6.27221 40.1258 9.80463 43.1377 13.962 44.9821C18.1194 46.8265 22.7229 47.4241 27.2134 46.7024C31.7039 45.9807 35.8883 43.9707 39.2584 40.9165C36.9378 38.8202 35.0582 36.2827 33.7293 33.4519V33.4519ZM9.26201 30.4106L10.7338 21.2424L7.46457 30.4106H5.71403L5.53038 21.2932L3.96739 30.4106H1.52131L3.5024 18.4772H7.14286L7.28092 25.8493L9.72309 18.4772H13.7777L11.7967 30.4106H9.26201ZM20.0909 29.3048L19.9984 29.8115V30.1345L19.9515 30.4106H17.7373L17.7842 29.3973C17.2306 30.1788 16.4934 30.5956 15.1115 30.5956C13.8676 30.5956 12.8543 29.4897 12.8543 27.9228C12.8632 27.5022 12.9249 27.0843 13.0379 26.679C13.4521 25.1577 14.9734 24.2368 17.2775 24.1912C17.6467 24.1855 18.0159 24.2007 18.3833 24.2368C18.4503 24.0264 18.4811 23.8062 18.4745 23.5856C18.4745 22.9408 17.9679 22.7559 16.7696 22.7559C16.0553 22.7708 15.3447 22.8634 14.6504 23.032L14.3287 23.1701H14.1463L14.511 21.0118C15.7093 20.6432 16.539 20.5052 17.4599 20.5052C19.6741 20.5052 20.8242 21.4716 20.8242 23.3615C20.8523 23.9944 20.8055 24.6283 20.6848 25.2501L20.1821 28.7095L20.0909 29.3048ZM25.2045 24.651C26.494 25.2045 27.1452 25.9873 27.1452 27.3237C27.1452 29.4897 25.9469 30.5487 23.1361 30.5487C22.6431 30.5548 22.1503 30.5243 21.6617 30.4575C21.4434 30.4596 21.2259 30.4284 21.017 30.365L20.5559 30.2725H20.5025L20.7786 28.0583C21.6083 28.2888 22.2999 28.4269 23.0371 28.4269C24.0505 28.4269 24.6001 28.0583 24.6001 27.4592C24.6001 27.045 24.4165 26.9525 23.3563 26.4458C22.0199 25.8467 21.4676 24.9714 21.4676 23.82C21.4676 22.0226 22.4354 20.5026 25.2449 20.5026C26.0152 20.5232 26.7838 20.5845 27.5477 20.6862L27.1791 22.9447C26.5376 22.8603 25.8918 22.8137 25.2449 22.8054C24.4634 22.8054 23.9997 23.174 23.9997 23.635C23.9997 24.0961 24.1495 24.1508 25.2045 24.651V24.651Z" fill="#F39A00"/>
<path d="M32.5766 20.7344H31.6804C31.5859 21.5452 31.5329 22.3603 31.5215 23.1765H32.208L32.5766 20.7344Z" fill="white"/>
<path d="M44.2352 20.7344H41.5156L39.9955 30.4106H42.5302L43.4511 25.2006C43.6146 24.8665 43.7995 24.5432 44.0046 24.2329C44.4657 23.6337 44.8799 23.6337 45.3866 23.6337H45.5702C45.5246 24.1873 45.479 24.832 45.479 25.4768C45.479 26.8131 45.7968 27.9372 46.3712 28.7916C46.396 28.6848 46.422 28.5793 46.4468 28.4725C46.6291 27.6508 46.7674 26.8199 46.861 25.9834C47.0451 24.33 47.0451 22.6613 46.861 21.0079C46.8206 20.6419 46.7698 20.2759 46.7112 19.9099L44.0971 21.7451L44.2352 20.7344Z" fill="white"/>
<path d="M36.54 30.5956C37.4314 30.5931 38.317 30.4534 39.1659 30.1814L39.5814 27.7848C38.7472 28.1785 37.8363 28.3831 36.9139 28.384C35.4394 28.384 34.6996 27.8304 34.6996 26.679V26.4029H39.7676C39.9982 25.3882 40.0906 24.6979 40.0906 24.0063C40.0906 21.8403 38.7543 20.4583 36.6807 20.4583C34.1005 20.4583 32.2106 22.9474 32.2106 26.2648C32.208 29.1212 33.8218 30.5956 36.54 30.5956ZM36.4476 22.7181C37.1848 22.7181 37.6459 23.1779 37.6459 23.962V24.4218H34.8299C35.0656 23.3147 35.6179 22.7181 36.4476 22.7181Z" fill="white"/>
</svg>
