<svg width="98" height="30" fill="none" xmlns="http://www.w3.org/2000/svg"><path d="M34.527 29.56L39.485.504h7.937l-4.967 29.054h-7.928zM71.229 1.223A20.474 20.474 0 0 0 64.119 0c-7.841 0-13.364 3.94-13.41 9.588-.045 4.176 3.942 6.503 6.952 7.893 3.087 1.422 4.126 2.331 4.113 3.604 0 1.949-2.468 2.84-4.746 2.84a16.646 16.646 0 0 1-7.47-1.527l-1.022-.454-1.112 6.507c1.853.808 5.279 1.513 8.836 1.549 8.339 0 13.753-3.894 13.816-9.924.032-3.308-2.083-5.821-6.661-7.898-2.771-1.363-4.47-2.24-4.452-3.598 0-1.21 1.437-2.5 4.52-2.5a14.616 14.616 0 0 1 5.938 1.114l.71.331 1.098-6.302zM91.578.532h-6.134c-1.898 0-3.317.518-4.153 2.409L69.508 29.568h8.33s1.356-3.58 1.672-4.366h10.16c.24 1.017.967 4.353.967 4.353H98L91.578.532zm-9.772 18.726c.655-1.672 3.164-8.12 3.164-8.12-.046.077.655-1.681 1.053-2.772l.538 2.504s1.518 6.934 1.835 8.388h-6.59zM27.869.528L20.104 20.34l-.831-4.026c-1.447-4.644-5.948-9.67-10.988-12.187l7.105 25.41h8.393L36.276.527h-8.407z" fill="#004686"/><path d="M12.895.51H.099L0 1.113c9.943 2.403 16.538 8.215 19.272 15.2l-2.78-13.351c-.479-1.818-1.875-2.39-3.615-2.454h.018z" fill="#EF9B11"/></svg>